<svg xmlns="http://www.w3.org/2000/svg" width="21.534" height="19.141" viewBox="0 0 21.534 19.141">
  <g id="Groupe_242" data-name="Groupe 242" transform="translate(-140 -884.331)">
    <path id="map-marked-alt-solid" d="M10.767,0A4.71,4.71,0,0,0,6.056,4.711c0,2.1,3.079,5.937,4.258,7.328a.59.59,0,0,0,.9,0c1.18-1.391,4.258-5.225,4.258-7.328A4.71,4.71,0,0,0,10.767,0Zm0,6.281a1.57,1.57,0,1,1,1.57-1.57A1.57,1.57,0,0,1,10.767,6.281ZM.752,8.073A1.2,1.2,0,0,0,0,9.184v9.358a.6.6,0,0,0,.82.556l5.161-2.349V8.035A11.322,11.322,0,0,1,5.187,6.3Zm10.015,5.373A1.786,1.786,0,0,1,9.4,12.812c-.735-.867-1.517-1.855-2.224-2.868v6.8l7.178,2.393v-9.2c-.707,1.013-1.489,2-2.224,2.868A1.787,1.787,0,0,1,10.767,13.446Zm9.947-7.421L15.552,8.374V19.141l5.229-2.092a1.2,1.2,0,0,0,.752-1.111V6.581a.6.6,0,0,0-.82-.556Z" transform="translate(140 884.331)" fill="#d61016"/>
  </g>
</svg>
