<svg xmlns="http://www.w3.org/2000/svg" width="1480" height="273.044" viewBox="0 0 1480 273.044">
  <g id="Groupe_240" data-name="Groupe 240" transform="translate(3317.5 -8059.162)">
    <g id="Groupe_239" data-name="Groupe 239" transform="translate(-3235 5290.206)" opacity="0.52">
      <g id="Groupe_12" data-name="Groupe 12" transform="translate(-1200.653 3286.086)">
        <g id="Groupe_9" data-name="Groupe 9" transform="translate(1304.153 -244.086) rotate(180)">
          <path id="Tracé_1" data-name="Tracé 1" d="M41.155,126.214V0H0V252.5H122.015V126.214H41.155Zm39.628,85.059h-39.7v-43.98h39.7Z" transform="translate(0 20.539)" fill="#f6f6f6"/>
          <path id="Tracé_2" data-name="Tracé 2" d="M121.938,85.059h0v-43.9L80.86,0H0V41.155H0v85.059H80.86V252.429h41.079V126.214h0Zm-80.783,0v-43.9h39.7v43.9Z" transform="translate(64.062 0)" fill="#f6f6f6"/>
        </g>
      </g>
      <g id="Groupe_13" data-name="Groupe 13" transform="translate(-982.653 3286.086)">
        <g id="Groupe_9-2" data-name="Groupe 9" transform="translate(1304.153 -244.086) rotate(180)">
          <path id="Tracé_1-2" data-name="Tracé 1" d="M41.155,126.214V0H0V252.5H122.015V126.214H41.155Zm39.628,85.059h-39.7v-43.98h39.7Z" transform="translate(0 20.539)" fill="#f6f6f6"/>
          <path id="Tracé_2-2" data-name="Tracé 2" d="M121.938,85.059h0v-43.9L80.86,0H0V41.155H0v85.059H80.86V252.429h41.079V126.214h0Zm-80.783,0v-43.9h39.7v43.9Z" transform="translate(64.062 0)" fill="#f6f6f6"/>
        </g>
      </g>
      <g id="Groupe_14" data-name="Groupe 14" transform="translate(-775.653 3286.086)">
        <g id="Groupe_9-3" data-name="Groupe 9" transform="translate(1304.153 -244.086) rotate(180)">
          <path id="Tracé_1-3" data-name="Tracé 1" d="M41.155,126.214V0H0V252.5H122.015V126.214H41.155Zm39.628,85.059h-39.7v-43.98h39.7Z" transform="translate(0 20.539)" fill="#f6f6f6"/>
          <path id="Tracé_2-3" data-name="Tracé 2" d="M121.938,85.059h0v-43.9L80.86,0H0V41.155H0v85.059H80.86V252.429h41.079V126.214h0Zm-80.783,0v-43.9h39.7v43.9Z" transform="translate(64.062 0)" fill="#f6f6f6"/>
        </g>
      </g>
      <g id="Groupe_15" data-name="Groupe 15" transform="translate(-557.653 3286.086)">
        <g id="Groupe_9-4" data-name="Groupe 9" transform="translate(1304.153 -244.086) rotate(180)">
          <path id="Tracé_1-4" data-name="Tracé 1" d="M41.155,126.214V0H0V252.5H122.015V126.214H41.155Zm39.628,85.059h-39.7v-43.98h39.7Z" transform="translate(0 20.539)" fill="#f6f6f6"/>
          <path id="Tracé_2-4" data-name="Tracé 2" d="M121.938,85.059h0v-43.9L80.86,0H0V41.155H0v85.059H80.86V252.429h41.079V126.214h0Zm-80.783,0v-43.9h39.7v43.9Z" transform="translate(64.062 0)" fill="#f6f6f6"/>
        </g>
      </g>
      <g id="Groupe_17" data-name="Groupe 17" transform="translate(-123.653 3286.086)">
        <g id="Groupe_9-5" data-name="Groupe 9" transform="translate(1304.153 -244.086) rotate(180)">
          <path id="Tracé_1-5" data-name="Tracé 1" d="M41.155,126.214V0H0V252.5H122.015V126.214H41.155Zm39.628,85.059h-39.7v-43.98h39.7Z" transform="translate(0 20.539)" fill="#f6f6f6"/>
          <path id="Tracé_2-5" data-name="Tracé 2" d="M121.938,85.059h0v-43.9L80.86,0H0V41.155H0v85.059H80.86V252.429h41.079V126.214h0Zm-80.783,0v-43.9h39.7v43.9Z" transform="translate(64.062 0)" fill="#f6f6f6"/>
        </g>
      </g>
      <g id="Groupe_16" data-name="Groupe 16" transform="translate(-340.653 3286.086)">
        <g id="Groupe_9-6" data-name="Groupe 9" transform="translate(1304.153 -244.086) rotate(180)">
          <path id="Tracé_1-6" data-name="Tracé 1" d="M41.155,126.214V0H0V252.5H122.015V126.214H41.155Zm39.628,85.059h-39.7v-43.98h39.7Z" transform="translate(0 20.539)" fill="#f6f6f6"/>
          <path id="Tracé_2-6" data-name="Tracé 2" d="M121.938,85.059h0v-43.9L80.86,0H0V41.155H0v85.059H80.86V252.429h41.079V126.214h0Zm-80.783,0v-43.9h39.7v43.9Z" transform="translate(64.062 0)" fill="#f6f6f6"/>
        </g>
      </g>
      <g id="Groupe_18" data-name="Groupe 18" transform="translate(93.347 3286.086)">
        <g id="Groupe_9-7" data-name="Groupe 9" transform="translate(1304.153 -244.086) rotate(180)">
          <path id="Tracé_1-7" data-name="Tracé 1" d="M41.155,126.214V0H0V252.5H122.015V126.214H41.155Zm39.628,85.059h-39.7v-43.98h39.7Z" transform="translate(0 20.539)" fill="#f6f6f6"/>
          <path id="Tracé_2-7" data-name="Tracé 2" d="M121.938,85.059h0v-43.9L80.86,0H0V41.155H0v85.059H80.86V252.429h41.079V126.214h0Zm-80.783,0v-43.9h39.7v43.9Z" transform="translate(64.062 0)" fill="#f6f6f6"/>
        </g>
      </g>
    </g>
  </g>
</svg>
