<svg xmlns="http://www.w3.org/2000/svg" width="110.24" height="35.98" viewBox="0 0 110.24 35.98"><g transform="translate(-3.43 -3.16)"><path d="M8.82,22.38V5.85H3.43V38.92H19.41V22.38H8.82Zm5.19,11.14H8.81V27.76h5.2Z" fill="#fff9f9"/><path d="M27.79,14.3h0V8.55L22.41,3.16H11.82V8.55h0V19.69H22.41V36.22h5.38V19.69h0Zm-10.58,0V8.55h5.2V14.3Z" fill="#fff9f9"/><g opacity="0.55"><path d="M45.98,18.2a3.06,3.06,0,0,0,1.19-1.09,2.986,2.986,0,0,0,.42-1.58,2.678,2.678,0,0,0-1.19-2.3,5.844,5.844,0,0,0-3.4-.85H37.07V24.51h6.27a6.33,6.33,0,0,0,3.61-.86,2.793,2.793,0,0,0,1.24-2.45,3.072,3.072,0,0,0-.59-1.9A3.2,3.2,0,0,0,45.98,18.2Zm-6.12-3.71h2.79a2.864,2.864,0,0,1,1.58.36,1.33,1.33,0,0,1,0,2.14,2.841,2.841,0,0,1-1.58.36H39.86Zm4.95,7.54a3.139,3.139,0,0,1-1.67.36H39.87v-3h3.27c1.49,0,2.23.5,2.23,1.51A1.257,1.257,0,0,1,44.81,22.03Z" fill="#fff"/><path d="M53.9,15.05a8.438,8.438,0,0,0-2.19.29,5.7,5.7,0,0,0-1.83.83l.97,1.89a3.608,3.608,0,0,1,1.22-.63,4.592,4.592,0,0,1,1.46-.23,2.347,2.347,0,0,1,1.61.48,1.72,1.72,0,0,1,.54,1.36H53.53a5.027,5.027,0,0,0-3.02.74,2.44,2.44,0,0,0-.98,2.04,2.624,2.624,0,0,0,.42,1.46,2.768,2.768,0,0,0,1.2,1,4.473,4.473,0,0,0,1.86.36,3,3,0,0,0,2.84-1.3V24.5h2.53V19.18a3.956,3.956,0,0,0-1.16-3.11A4.817,4.817,0,0,0,53.9,15.05Zm1.78,6.51a1.7,1.7,0,0,1-.76.94,2.4,2.4,0,0,1-1.23.32,1.861,1.861,0,0,1-1.12-.3.978.978,0,0,1-.41-.82c0-.73.55-1.09,1.66-1.09h1.85v.95Z" fill="#fff"/><path d="M63.53,19.9a2.6,2.6,0,0,1,.61-1.88,2.154,2.154,0,0,1,1.63-.63,1.752,1.752,0,0,1,1.4.55,2.444,2.444,0,0,1,.49,1.65v4.92h2.7V19.17a4.115,4.115,0,0,0-1.07-3.08,3.845,3.845,0,0,0-2.8-1.04,4.737,4.737,0,0,0-1.75.32,3.505,3.505,0,0,0-1.33.91V15.19H60.83v9.32h2.7V19.9Z" fill="#fff"/><path d="M83.02,24.51l-4.23-5.37,3.88-3.95H79.45L75.5,18.93V11.65H72.8V24.51h2.7V22.13l1.3-1.28,2.95,3.66Z" fill="#fff"/><path d="M45.12,27.4a6.692,6.692,0,0,0-2.8-.54H37.07V38.99h2.81V35.65h2.44a6.89,6.89,0,0,0,2.8-.53,4.068,4.068,0,0,0,1.83-1.53,4.2,4.2,0,0,0-1.83-6.19Zm-1.03,5.42a2.968,2.968,0,0,1-1.92.55H39.88V29.16h2.29a2.911,2.911,0,0,1,1.92.55,1.92,1.92,0,0,1,.66,1.57A1.9,1.9,0,0,1,44.09,32.82Z" fill="#fff"/><path d="M53.06,29.53a8.438,8.438,0,0,0-2.19.29,5.7,5.7,0,0,0-1.83.83l.97,1.89a3.608,3.608,0,0,1,1.22-.63,4.592,4.592,0,0,1,1.46-.23,2.347,2.347,0,0,1,1.61.48,1.72,1.72,0,0,1,.54,1.36H52.7a5.027,5.027,0,0,0-3.02.74,2.44,2.44,0,0,0-.98,2.04,2.624,2.624,0,0,0,.42,1.46,2.768,2.768,0,0,0,1.2,1,4.473,4.473,0,0,0,1.86.36,3,3,0,0,0,2.84-1.3v1.16h2.53V33.66a3.956,3.956,0,0,0-1.16-3.11A4.929,4.929,0,0,0,53.06,29.53Zm1.79,6.52a1.7,1.7,0,0,1-.76.94,2.4,2.4,0,0,1-1.23.32,1.861,1.861,0,0,1-1.12-.3.978.978,0,0,1-.41-.82c0-.73.55-1.09,1.66-1.09h1.85v.95Z" fill="#fff"/><path d="M62.58,30.9V29.67H60v9.32h2.7v-4.4a2.614,2.614,0,0,1,.66-1.95,2.5,2.5,0,0,1,1.82-.65c.1,0,.31.01.61.04v-2.5a4.878,4.878,0,0,0-1.9.35A2.976,2.976,0,0,0,62.58,30.9Z" fill="#fff"/><path d="M71.1,29.53a8.438,8.438,0,0,0-2.19.29,5.927,5.927,0,0,0-1.83.83l.97,1.89a3.608,3.608,0,0,1,1.22-.63,4.592,4.592,0,0,1,1.46-.23,2.347,2.347,0,0,1,1.61.48,1.72,1.72,0,0,1,.54,1.36H70.73a5.027,5.027,0,0,0-3.02.74,2.44,2.44,0,0,0-.98,2.04,2.624,2.624,0,0,0,.42,1.46,2.768,2.768,0,0,0,1.2,1,4.44,4.44,0,0,0,1.86.36,3,3,0,0,0,2.84-1.3v1.16h2.53V33.66a3.956,3.956,0,0,0-1.16-3.11A4.918,4.918,0,0,0,71.1,29.53Zm1.78,6.52a1.7,1.7,0,0,1-.76.94,2.4,2.4,0,0,1-1.23.32,1.861,1.861,0,0,1-1.12-.3.978.978,0,0,1-.41-.82c0-.73.55-1.09,1.66-1.09h1.85v.95Z" fill="#fff"/><path d="M84.93,30.66a3.552,3.552,0,0,0-2.79-1.13,4.855,4.855,0,0,0-2.38.59,4.156,4.156,0,0,0-1.67,1.68,5.175,5.175,0,0,0-.61,2.53,5.068,5.068,0,0,0,.61,2.53,4.156,4.156,0,0,0,1.67,1.68,4.855,4.855,0,0,0,2.38.59,3.558,3.558,0,0,0,2.91-1.21v1.07h2.58V26.14h-2.7v4.52Zm-.63,5.55a2.255,2.255,0,0,1-1.7.7,2.3,2.3,0,0,1-1.72-.7,2.973,2.973,0,0,1,0-3.76,2.439,2.439,0,0,1,3.42,0,2.939,2.939,0,0,1,0,3.76Z" fill="#fff"/><rect width="2.7" height="9.32" transform="translate(90.12 29.67)" fill="#fff"/><path d="M91.47,25.36a1.691,1.691,0,0,0-1.21.43,1.418,1.418,0,0,0-.47,1.07,1.4,1.4,0,0,0,.47,1.07,1.9,1.9,0,0,0,2.42-.01,1.479,1.479,0,0,0,.47-1.12,1.34,1.34,0,0,0-.47-1.04A1.72,1.72,0,0,0,91.47,25.36Z" fill="#fff"/><path d="M101.07,33.79a17.9,17.9,0,0,0-1.87-.41,7.579,7.579,0,0,1-1.49-.33.63.63,0,0,1-.47-.61.705.705,0,0,1,.43-.62,2.757,2.757,0,0,1,1.3-.24,5.414,5.414,0,0,1,2.69.69l.9-1.92a5.845,5.845,0,0,0-1.62-.6,9.365,9.365,0,0,0-1.97-.22,6.424,6.424,0,0,0-2.31.38,3.249,3.249,0,0,0-1.49,1.07,2.567,2.567,0,0,0-.51,1.57,2.234,2.234,0,0,0,.55,1.63,2.9,2.9,0,0,0,1.29.8,14.832,14.832,0,0,0,1.89.4,7.262,7.262,0,0,1,1.44.29.612.612,0,0,1,.47.57c0,.57-.57.85-1.71.85a6.187,6.187,0,0,1-1.73-.25,5.677,5.677,0,0,1-1.51-.65l-.9,1.94a5.9,5.9,0,0,0,1.77.72,9.115,9.115,0,0,0,2.27.29,6.919,6.919,0,0,0,2.36-.37,3.316,3.316,0,0,0,1.52-1.05,2.43,2.43,0,0,0,.52-1.54,2.22,2.22,0,0,0-.54-1.59A2.726,2.726,0,0,0,101.07,33.79Z" fill="#fff"/><path d="M113.67,34.37a5.087,5.087,0,0,0-.63-2.56,4.289,4.289,0,0,0-1.74-1.69,5.51,5.51,0,0,0-5.02.03,4.507,4.507,0,0,0-1.78,1.71,4.8,4.8,0,0,0-.65,2.47,4.718,4.718,0,0,0,.66,2.48,4.5,4.5,0,0,0,1.87,1.71,6.1,6.1,0,0,0,2.79.62,4.824,4.824,0,0,0,3.85-1.51l-1.44-1.56a3.007,3.007,0,0,1-1.05.68,3.709,3.709,0,0,1-1.29.22,3.052,3.052,0,0,1-1.77-.5,2.2,2.2,0,0,1-.9-1.37h7.05C113.65,34.64,113.67,34.4,113.67,34.37Zm-7.14-.85a2.234,2.234,0,0,1,.76-1.42,2.3,2.3,0,0,1,1.54-.52,2.269,2.269,0,0,1,1.52.53,2.19,2.19,0,0,1,.76,1.41Z" fill="#fff"/><rect width="2" height="26.69" transform="translate(31.16 12.22)" fill="#fff"/></g></g></svg>