<svg xmlns="http://www.w3.org/2000/svg" width="17.544" height="13.158" viewBox="0 0 17.544 13.158">
  <path id="envelope-solid_1_" data-name="envelope-solid (1)" d="M17.212,68.345a.206.206,0,0,1,.332.161v7.007A1.645,1.645,0,0,1,15.9,77.158H1.645A1.645,1.645,0,0,1,0,75.514v-7a.2.2,0,0,1,.332-.161c.768.6,1.785,1.354,5.28,3.893.723.528,1.943,1.638,3.159,1.631,1.223.01,2.467-1.124,3.163-1.631C15.43,69.7,16.444,68.941,17.212,68.345Zm-8.44,4.427c.795.014,1.939-1,2.515-1.419,4.547-3.3,4.893-3.588,5.942-4.41a.82.82,0,0,0,.315-.648v-.651A1.645,1.645,0,0,0,15.9,64H1.645A1.645,1.645,0,0,0,0,65.645V66.3a.825.825,0,0,0,.315.648c1.049.819,1.395,1.11,5.942,4.41C6.833,71.772,7.977,72.786,8.772,72.772Z" transform="translate(0 -64)" fill="#d61016"/>
</svg>
