<svg xmlns="http://www.w3.org/2000/svg" width="355.368" height="285.247" viewBox="0 0 355.368 285.247"><g transform="translate(-811.816 -1453.376)"><path d="M347.838,20.456C321.768,10.428,246.13-.787,161.159.043S36.259,5.388,19.523,15.12-23.026,43.933,41.346,48.028s160.69-3.243,224.1-7.871S373.909,30.484,347.838,20.456Z" transform="translate(811.816 1689.397)" fill="#e8e8e8" opacity="0.57"/><g transform="translate(844 1453.376)"><path d="M817.135,561.712c-2.647,16.287-14.573,28.9-27.27,39.919q-2.659,2.309-5.331,4.527c-.012.007-.024.021-.037.029-.086.071-.172.142-.251.212l-1.1.911.229.071.713.219-.731-.2c-.073-.021-.149-.038-.221-.059-8.418-2.274-17.008-4.769-23.889-10.1-7.14-5.533-12.057-14.966-9.594-23.656a15.918,15.918,0,0,1,1.342-3.276c.232-.435.488-.855.757-1.27a17.058,17.058,0,0,1,29.707,1.653c-.12-9.576-8.867-16.559-17.071-21.5s-17.5-10.275-20.08-19.5a18.456,18.456,0,0,1,2.6-14.889c.088-.136.175-.272.267-.4a24.9,24.9,0,0,1,14.863-10.431c11.365-2.578,23.276,2.171,32.6,9.168C809.634,524.4,820.144,543.194,817.135,561.712Z" transform="translate(-528.713 -347.188)" fill="#f2f2f2"/><path d="M796.424,555.54a42.325,42.325,0,0,1,6.367,10.5,36.749,36.749,0,0,1,2.555,10.624,47.082,47.082,0,0,1-3.567,22.009,67.76,67.76,0,0,1-8.52,14.781q-2.659,2.309-5.331,4.527c-.012.007-.024.021-.037.029-.086.071-.172.142-.251.212l-1.1.911.229.071.713.219-.731-.2c-.073-.021-.149-.038-.222-.059a37.126,37.126,0,0,0-32.142-37.03c.232-.435.488-.855.757-1.27a39.163,39.163,0,0,1,6.711,1.658,38.379,38.379,0,0,1,19.224,14.541,39.238,39.238,0,0,1,6.81,20.869c.294-.339.588-.684.872-1.025a68.8,68.8,0,0,0,12.816-21.577,43.8,43.8,0,0,0,2.082-21.122c-1.233-7.736-5.194-14.564-10.431-20.292a91.681,91.681,0,0,0-19.391-15.71,104.179,104.179,0,0,0-23.051-10.671.749.749,0,0,1-.489-.909.637.637,0,0,1,.267-.4.555.555,0,0,1,.481-.037c1,.322,1.992.651,2.98,1a105.36,105.36,0,0,1,23.325,11.661A84.806,84.806,0,0,1,796.424,555.54Z" transform="translate(-532.107 -359.008)" fill="#fff"/><path d="M545.886,491.514a3.19,3.19,0,0,1-3.178-2.982l-.473-7.228a3.19,3.19,0,0,1,2.975-3.392l56.629-3.709a6.812,6.812,0,0,1,.89,13.595L546.1,491.507Q545.993,491.514,545.886,491.514Z" transform="translate(-424.664 -332.176)" fill="#d61016"/><path d="M569.049,491.742a3.194,3.194,0,0,1-3.186-3.071l-.4-10.8a3.19,3.19,0,0,1,3.069-3.307l46.568-1.74A3.19,3.19,0,0,1,618.4,475.9l.4,10.8A3.19,3.19,0,0,1,615.738,490l-46.568,1.74Z" transform="translate(-436.66 -331.471)" fill="#2f2e41"/><path d="M674.6,646.462h-7.244a3.194,3.194,0,0,1-3.19-3.19V582.9a3.194,3.194,0,0,1,3.19-3.19H674.6a3.194,3.194,0,0,1,3.19,3.19v60.372A3.194,3.194,0,0,1,674.6,646.462Z" transform="translate(-487.637 -386.672)" fill="#2f2e41"/><path d="M610.992,586.289l-6.194-3.755a3.194,3.194,0,0,1-1.074-4.382l31.294-51.629a3.194,3.194,0,0,1,4.382-1.074l6.195,3.755a3.194,3.194,0,0,1,1.074,4.382l-31.294,51.629a3.194,3.194,0,0,1-4.382,1.074Z" transform="translate(-456.185 -358.411)" fill="#2f2e41"/><circle cx="25.03" cy="25.03" r="25.03" transform="translate(150.928 79.974)" fill="#d61016"/><path d="M631.393,397.9a5.935,5.935,0,0,1-2.168-1.272,3.992,3.992,0,0,1-1.167-3.16,2.685,2.685,0,0,1,1.194-2.067,3.473,3.473,0,0,1,3.311-.039l-.046-9.771.982,0,.054,11.487-.756-.476a2.973,2.973,0,0,0-3.014-.371,1.725,1.725,0,0,0-.747,1.334,3.017,3.017,0,0,0,.868,2.356c1.084,1.035,2.665,1.359,4.468,1.648l-.156.969A16.173,16.173,0,0,1,631.393,397.9Z" transform="translate(-468.984 -284.352)" fill="#2f2e41"/><rect width="0.981" height="5.286" transform="translate(153.287 97.721) rotate(-82.477)" fill="#2f2e41"/><rect width="0.981" height="5.286" transform="translate(169.83 99.905) rotate(-82.477)" fill="#2f2e41"/><path d="M656.675,538.559H614.469a4.176,4.176,0,0,1-4.172-4.172l8.836-67.759a4.167,4.167,0,0,1,4.17-4.14h14.979a22.591,22.591,0,0,1,22.566,22.566v49.333a4.176,4.176,0,0,1-4.172,4.172Z" transform="translate(-459.818 -326.133)" fill="#2f2e41"/><path d="M669.987,543a3.2,3.2,0,0,1-2.929,1.864l-7.243-.063a3.19,3.19,0,0,1-3.162-3.218l.492-56.749a6.812,6.812,0,1,1,13.623.118l-.492,56.749A3.172,3.172,0,0,1,669.987,543Z" transform="translate(-483.758 -334.186)" fill="#d61016"/><path d="M671.128,526.3a3.2,3.2,0,0,1-2.929,1.863l-12.372-.107a3.194,3.194,0,0,1-3.162-3.218l.4-46.6a3.19,3.19,0,0,1,3.218-3.162l12.372.107a3.19,3.19,0,0,1,3.162,3.218l-.4,46.6A3.176,3.176,0,0,1,671.128,526.3Z" transform="translate(-481.699 -332.633)" fill="#2f2e41"/><path d="M641.923,342.445c-3.346-2.769-7.819-.15-11.6-.522-3.62-.356-6.534-3.541-7.328-6.97-.926-4,1.082-8.062,4.106-10.625a15.95,15.95,0,0,1,12-3.251c4.858.489,9.333,2.664,13.363,5.322a59.8,59.8,0,0,1,10.69,8.715,23.007,23.007,0,0,1,6.186,10.912,15.129,15.129,0,0,1-1.875,11.3,11.879,11.879,0,0,1-4.576,3.918c-1.914.985-3.962,1.7-5.813,2.811-2.8,1.676-5.486,5.091-4.533,8.574a4.806,4.806,0,0,0,1.131,2.035c.647.691,1.771-.26,1.123-.953a4.052,4.052,0,0,1-.56-4.358,7.986,7.986,0,0,1,3.475-3.97c1.938-1.157,4.088-1.89,6.077-2.948a13.261,13.261,0,0,0,4.787-4.123,16.4,16.4,0,0,0,2.355-11.757,23.2,23.2,0,0,0-5.849-11.513,57.958,57.958,0,0,0-10.8-9.2c-4.163-2.865-8.748-5.266-13.786-6.07a18.328,18.328,0,0,0-12.837,2.317,13.536,13.536,0,0,0-6.353,10.4,10.913,10.913,0,0,0,5.277,9.689,9.374,9.374,0,0,0,5.623,1.191c2.089-.174,4.169-.854,6.277-.716a4.388,4.388,0,0,1,2.6,1c.731.6,1.566-.609.841-1.209Z" transform="translate(-465.497 -252.286)" fill="#2f2e41"/><path d="M603.046,629.68q.013-.083.031-.166a3.168,3.168,0,0,1,1.389-2.008l6.087-3.926a3.194,3.194,0,0,1,4.41.952l18.778,29.113a3.191,3.191,0,0,1-.952,4.41l-6.087,3.926a3.194,3.194,0,0,1-4.41-.952l-18.778-29.113a3.167,3.167,0,0,1-.469-2.236Z" transform="translate(-456.051 -409.066)" fill="#2f2e41"/><path d="M423.3,235.924a6.161,6.161,0,0,0-5.634-3.77H305.2a6.1,6.1,0,0,0-6.1,6.1V380.53a6.1,6.1,0,0,0,6.1,6.1h112.47a6.1,6.1,0,0,0,6.1-6.1V238.25a5.988,5.988,0,0,0-.462-2.327Zm-.892,144.606a4.748,4.748,0,0,1-4.743,4.743H305.2a4.743,4.743,0,0,1-4.743-4.741V238.251a4.749,4.749,0,0,1,4.743-4.743h112.47a4.766,4.766,0,0,1,4.4,2.983,5.26,5.26,0,0,1,.178.535,4.7,4.7,0,0,1,.162,1.224Z" transform="translate(-299.101 -207.177)" fill="#3f3d56"/><path d="M468.332,295.834H434.455a2.71,2.71,0,0,1,0-5.42h33.876a2.71,2.71,0,0,1,0,5.42Z" transform="translate(-367.605 -237.265)" fill="#3f3d56"/><path d="M468.332,325.258H434.455a2.71,2.71,0,0,1,0-5.42h33.876a2.71,2.71,0,1,1,0,5.42Z" transform="translate(-367.605 -252.461)" fill="#3f3d56"/><path d="M371.706,310.085H346.949a3.052,3.052,0,0,1-3.049-3.049V277.821a3.052,3.052,0,0,1,3.049-3.049h24.757a3.052,3.052,0,0,1,3.049,3.049v29.215A3.052,3.052,0,0,1,371.706,310.085Z" transform="translate(-322.238 -229.187)" fill="#d61016"/><path d="M422.258,385.507H345.7a2.71,2.71,0,0,1,0-5.42h76.56a2.71,2.71,0,1,1,0,5.42Z" transform="translate(-321.766 -283.576)" fill="#ccc"/><path d="M422.258,414.931H345.7a2.71,2.71,0,0,1,0-5.42h76.56a2.71,2.71,0,1,1,0,5.42Z" transform="translate(-321.766 -298.772)" fill="#ccc"/><path d="M422.258,444.355H345.7a2.71,2.71,0,0,1,0-5.42h76.56a2.71,2.71,0,1,1,0,5.42Z" transform="translate(-321.766 -313.968)" fill="#ccc"/><path d="M422.258,473.779H345.7a2.71,2.71,0,0,1,0-5.42h76.56a2.71,2.71,0,1,1,0,5.42Z" transform="translate(-321.766 -329.164)" fill="#ccc"/><path d="M422.258,503.2H345.7a2.71,2.71,0,0,1,0-5.42h76.56a2.71,2.71,0,1,1,0,5.42Z" transform="translate(-321.766 -344.36)" fill="#ccc"/><circle cx="26.155" cy="26.155" r="26.155" transform="translate(98.882 0)" fill="#d61016"/><path d="M542.841,233.978a2.713,2.713,0,0,1-1.632-.542l-.029-.022-6.147-4.7a2.732,2.732,0,0,1,3.324-4.336l3.981,3.053,9.408-12.274a2.731,2.731,0,0,1,3.828-.506h0l-.058.081.06-.081a2.734,2.734,0,0,1,.505,3.829l-11.066,14.431a2.732,2.732,0,0,1-2.173,1.065Z" transform="translate(-420.396 -197.845)" fill="#fff"/><path d="M709.329,718.467H531.383a.484.484,0,1,1,0-.967H709.329a.484.484,0,1,1,0,.967Z" transform="translate(-418.813 -457.833)" fill="#3f3d56"/></g></g></svg>