<svg xmlns="http://www.w3.org/2000/svg" xmlns:xlink="http://www.w3.org/1999/xlink" width="363.264" height="262.207" viewBox="0 0 363.264 262.207"><defs><linearGradient id="a" x1="0.5" y1="1" x2="0.5" gradientUnits="objectBoundingBox"><stop offset="0" stop-color="gray" stop-opacity="0.251"/><stop offset="0.54" stop-color="gray" stop-opacity="0.122"/><stop offset="1" stop-color="gray" stop-opacity="0.102"/></linearGradient><linearGradient id="b" x1="0.5" y1="1.009" x2="0.5" y2="-0.002" xlink:href="#a"/></defs><g transform="translate(-174.512 -2108.986)"><path d="M7.7,20.456C34.347,10.428,111.665-.787,198.524.043S326.2,5.388,343.307,15.12,386.8,43.933,321,48.028s-164.26-3.243-229.075-7.871S-18.953,30.484,7.7,20.456Z" transform="translate(174.512 2321.967)" fill="#e8e8e8" opacity="0.57"/><g transform="translate(185.56 2108.983)"><path d="M121.746,47s-1.131,4.413,6.774,16.888,7.356,14.242,6.9,17.809-.429,5.52-5.022,9.9c0,0-13.762,4.518-15.6,7.335s3.039,13.06,3.039,13.06,4.686,12.442-12.142,17.215c0,0-13.168.018-16.819,2.919,0,0,1.413-5.049-2.979-12.475s1.659-14.665,1.659-14.665,4.872-2.682,7.966-2.889,4.074-1.623,2.085-5.178c0,0-2.877-1.5-6.861,1.713s-6.96,5.5-10.432,5.232-8.422-1.734-11.671-8.158S63.683,80.2,61.25,76.057,57.5,71,57.5,71s3.075,2.334,13.693-5.589,16.159-4.533,16.159-4.533,8.533,2.292,9.9,17.338c0,0,2.481,14.338,7.524,5.652,0,0-1.707-4.89-5.118-12.091s5.718-13.978,12.4-16.246A18.184,18.184,0,0,0,121.746,47Z" transform="translate(-57.5 -44.484)" fill="#d61016"/><path d="M88.42,137.189l-.03-.075c2.1-.876,11.788,4.371,19.534,8.929l-.042.069C96.956,139.686,90.043,136.517,88.42,137.189Z" transform="translate(-79.122 -107.494)" fill="#444053"/><path d="M152.83,166.9l.084-.045c6.186,3.645,13.609,8.272,19.168,12.028.528.357,1.077.711,1.638,1.044l-.087.141c-.561-.336-1.113-.69-1.644-1.05C166.436,175.26,159.013,170.537,152.83,166.9Z" transform="translate(-124.229 -128.376)" fill="#444053"/><path d="M221.63,210.338l.138-.108c11.152,6.693,26.84,5.1,26.978,5.1l-1.731,1.965C246.877,217.3,232.86,217.076,221.63,210.338Z" transform="translate(-172.388 -158.742)" fill="#444053"/><path d="M200.589,80.61s-3.651,10.168-.876,17.332-3,24.917-3,24.917-1.917,7.468-5,9.334c0,0-4.473,5.553-7.1,6.189s-8.653,6.27-8.494,9.388" transform="translate(-140.531 -68.01)" fill="none" stroke="#444053" stroke-miterlimit="10" stroke-width="1"/><path d="M259.2,83s-2.574,5.22-6.405,5.175" transform="translate(-194.199 -69.683)" fill="none" stroke="#444053" stroke-miterlimit="10" stroke-width="1"/><path d="M265.2,105.62s-1.557,7.179-11.2,9.187" transform="translate(-195.046 -85.517)" fill="none" stroke="#444053" stroke-miterlimit="10" stroke-width="1"/><path d="M271.32,141.28A15.462,15.462,0,0,1,257,147.667" transform="translate(-197.146 -110.478)" fill="none" stroke="#444053" stroke-miterlimit="10" stroke-width="1"/><path d="M266.9,186.69s-8.542,5.6-15,2.523" transform="translate(-193.576 -142.264)" fill="none" stroke="#444053" stroke-miterlimit="10" stroke-width="1"/><path d="M237.56,83s2.232,4.722,4.7,3.3" transform="translate(-183.538 -69.683)" fill="none" stroke="#444053" stroke-miterlimit="10" stroke-width="1"/><path d="M210.32,106.91s3,6.336,12.388,5.223" transform="translate(-164.471 -86.42)" fill="none" stroke="#444053" stroke-miterlimit="10" stroke-width="1"/><path d="M207.3,138.67s8.257,5.016,14.953,3.657" transform="translate(-162.357 -108.651)" fill="none" stroke="#444053" stroke-miterlimit="10" stroke-width="1"/><path d="M221.79,172.52s6.534,5.211,9.6,4.014" transform="translate(-172.5 -132.345)" fill="none" stroke="#444053" stroke-miterlimit="10" stroke-width="1"/><path d="M216.69,185.47s1.767,5.475.03,6.51" transform="translate(-168.93 -141.41)" fill="none" stroke="#444053" stroke-miterlimit="10" stroke-width="1"/><path d="M197.4,203.6s3.369-3.345,2.43-3.96" transform="translate(-155.427 -151.329)" fill="none" stroke="#444053" stroke-miterlimit="10" stroke-width="1"/><path d="M174.712,120.22s2.949,14.008-.882,17.788" transform="translate(-138.929 -95.736)" fill="none" stroke="#444053" stroke-miterlimit="10" stroke-width="1"/><path d="M135.67,199.5s13.348-8.572,14.512-13.636" transform="translate(-112.217 -141.683)" fill="none" stroke="#444053" stroke-miterlimit="10" stroke-width="1"/><path d="M109.9,184.431s12.556-5.853,15.961-11.461" transform="translate(-94.179 -132.66)" fill="none" stroke="#444053" stroke-miterlimit="10" stroke-width="1"/><path d="M138,105.26s6.075,10.135,2.28,17.227" transform="translate(-113.848 -85.265)" fill="none" stroke="#444053" stroke-miterlimit="10" stroke-width="0.75"/><path d="M96.25,163.242s9.3-3.765,11.182-7.392" transform="translate(-84.624 -120.677)" fill="none" stroke="#444053" stroke-miterlimit="10" stroke-width="0.75"/><path d="M102.79,115.56s3.111,5.736,1.662,8.23" transform="translate(-89.202 -92.474)" fill="none" stroke="#444053" stroke-miterlimit="10" stroke-width="0.75"/><path d="M210.23,228.007s8.4-1.125,9.3,1.068" transform="translate(-164.408 -170.983)" fill="none" stroke="#444053" stroke-miterlimit="10" stroke-width="1"/><path d="M241.7,256.339s-.453-9.187-5.7-12.739" transform="translate(-182.446 -182.1)" fill="none" stroke="#444053" stroke-miterlimit="10" stroke-width="1"/><path d="M178.22,241s8.818,1.041,11.935,6.792" transform="translate(-142.002 -180.28)" fill="none" stroke="#444053" stroke-miterlimit="10" stroke-width="1"/><path d="M215.659,281.468a12,12,0,0,0-5.079-11.488" transform="translate(-164.653 -200.565)" fill="none" stroke="#444053" stroke-miterlimit="10" stroke-width="1"/><path d="M157.05,268.072s7.314-.375,11.233,3.1" transform="translate(-127.183 -199.222)" fill="none" stroke="#444053" stroke-miterlimit="10" stroke-width="1"/><path d="M184.6,297.621s-.684-5.34-2.592-6.351" transform="translate(-144.655 -215.468)" fill="none" stroke="#444053" stroke-miterlimit="10" stroke-width="1"/><path d="M250.829,97.84c-16.462,8.284-34.466,11.9-52.02,14.68s-35.273,4.929-52.573,10.75c-11.125,3.744-22.883,9.808-28.367,19.228-5.286,9.046-3.333,18.691-.537,27.1,2.1,6.321,4.8,12.718,10.549,16.582,4,2.682,9.184,3.939,13.54,6.222,15.154,7.936,17.611,26.549,15.169,43.671-1.146,8.032-3.114,16.168-3.087,24.041s2.3,15.673,8.545,20.323c6.192,4.608,15.49,5.544,24.6,4.8,18.514-1.5,37.13-9.178,54.862-17.428,39.261-18.262,76.868-40.035,114.389-61.753,13.879-8.038,27.821-16.114,40.6-25.634,7.1-5.286,14.1-11.359,17.377-18.625,4.173-9.223.99-19.27-7.422-23.42-14.1-6.96-37.677,2.217-49.836-6.873-6.717-5-7.594-14.161-6.5-22.757,2.346-18.469,12.043-38.826,4.641-54.454C349.676,43.557,336.3,37.311,321.7,38.856c-15.3,1.62-32.258,11.68-36.818,25.241C280.192,78.063,265.365,90.511,250.829,97.84Z" transform="translate(-97.432 -38.62)" fill="#d61016" opacity="0.1"/><ellipse cx="30.035" cy="7.419" rx="30.035" ry="7.419" transform="translate(162.83 220.994)" fill="#d61016" opacity="0.1"/><rect width="285.118" height="161.51" rx="12.49" transform="translate(40.401 40.718)" fill="url(#a)"/><rect width="284.245" height="158.701" rx="12.49" transform="translate(40.854 42.989)" fill="#fff"/><rect width="284.245" height="158.701" rx="12.49" transform="translate(40.854 42.989)" fill="#fff"/><rect width="284.245" height="158.701" rx="12.49" transform="translate(40.854 42.989)" fill="#5a5773" opacity="0.04"/><path d="M476.482,175.83H195.123a1.443,1.443,0,0,0-1.443,1.443v6.108H477.925v-6.108A1.443,1.443,0,0,0,476.482,175.83Z" transform="translate(-152.823 -134.662)" fill="#5a5773"/><g transform="translate(44.58 42.989)"><circle cx="1.95" cy="1.95" r="1.95" fill="#fff"/><circle cx="1.95" cy="1.95" r="1.95" transform="translate(5.25)" fill="#fff"/><circle cx="1.95" cy="1.95" r="1.95" transform="translate(10.501)" fill="#fff"/></g><rect width="237.016" height="91.206" rx="10.19" transform="translate(59.881 83.849)" fill="#d61016" opacity="0.1"/><rect width="237.016" height="91.206" rx="10.19" transform="matrix(1, 0.025, -0.025, 1, 65.66, 74.934)" fill="#fff"/><line x2="165.107" y2="4.197" transform="translate(101.113 94.286)" fill="#f4f4f7" stroke="#5a5773" stroke-miterlimit="10" stroke-width="1" opacity="0.2"/><line x2="165.107" y2="4.197" transform="translate(100.786 107.184)" fill="#f4f4f7" stroke="#5a5773" stroke-miterlimit="10" stroke-width="1" opacity="0.2"/><line x2="165.107" y2="4.197" transform="translate(100.459 120.079)" fill="#f4f4f7" stroke="#5a5773" stroke-miterlimit="10" stroke-width="1" opacity="0.2"/><line x2="165.11" y2="4.197" transform="translate(100.129 132.977)" fill="#f4f4f7" stroke="#5a5773" stroke-miterlimit="10" stroke-width="1" opacity="0.2"/><line x1="0.417" y2="16.396" transform="translate(114.719 129.857)" fill="none" stroke="#5a5773" stroke-miterlimit="10" stroke-width="1" stroke-dasharray="12" opacity="0.2"/><line x2="165.107" y2="4.194" transform="translate(99.802 145.875)" fill="#f4f4f7" stroke="#5a5773" stroke-miterlimit="10" stroke-width="1" opacity="0.2"/><line y1="24.443" x2="0.621" transform="translate(133.392 122.284)" fill="none" stroke="#5a5773" stroke-miterlimit="10" stroke-width="1" stroke-dasharray="12" opacity="0.2"/><path d="M567.751,391.384c-2.943.255-5.817-1.4-7.578-3.129a29.675,29.675,0,0,1-4.425-6.168c-.405-.681-.825-1.383-1.248-2.061a22.338,22.338,0,0,0-7-7.48,13.332,13.332,0,0,0-2.979-1.362,2.105,2.105,0,0,1-1.893,1.287h-.1a2.1,2.1,0,0,1-2.025-1.821,9.135,9.135,0,0,0-2.763.567c-2.619.987-4.608,3.108-6.417,5.2-2.19,2.526-4.3,5.175-6.27,7.879q-.6.819-1.2,1.647a44.977,44.977,0,0,1-7.2,8.473c-3.834,3.252-8.446,4.653-12.337,3.75-4.668-1.083-8.008-5.208-10.393-8.683-.3-.45-.6-.9-.924-1.359-2.226-3.3-4.527-6.711-7.924-8.7a13.412,13.412,0,0,0-14.7,1.071,26.471,26.471,0,0,0-4.893,5.805c-.492.714-1,1.452-1.527,2.16-2.7,3.627-5.421,5.6-8.356,6.021a15.883,15.883,0,0,1-3.5,0c-.774-.054-1.575-.114-2.358-.093a11.338,11.338,0,0,0-9.472,5.9l-.414,17.269,129.7,3.3.726-28.571a1.8,1.8,0,0,1-2.526-.9Z" transform="translate(-325.137 -271.032)" fill="#d61016" opacity="0.2"/><line x1="1.029" y2="40.533" transform="translate(152.566 106.683)" fill="none" stroke="#5a5773" stroke-miterlimit="10" stroke-width="1" stroke-dasharray="12" opacity="0.2"/><line x1="0.648" y2="25.493" transform="translate(171.035 122.191)" fill="none" stroke="#5a5773" stroke-miterlimit="10" stroke-width="1" stroke-dasharray="12" opacity="0.2"/><line x1="0.582" y2="22.961" transform="translate(189.091 125.182)" fill="none" stroke="#5a5773" stroke-miterlimit="10" stroke-width="1" stroke-dasharray="12" opacity="0.2"/><line x1="1.116" y2="43.938" transform="translate(206.015 104.634)" fill="none" stroke="#5a5773" stroke-miterlimit="10" stroke-width="1" stroke-dasharray="12" opacity="0.2"/><line x1="1.167" y2="45.924" transform="translate(223.731 103.101)" fill="none" stroke="#5a5773" stroke-miterlimit="10" stroke-width="1" stroke-dasharray="12" opacity="0.2"/><line x1="0.744" y2="29.168" transform="translate(243.832 120.367)" fill="none" stroke="#5a5773" stroke-miterlimit="10" stroke-width="1" stroke-dasharray="12" opacity="0.2"/><path d="M779.81,364.314a2.106,2.106,0,0,0-3.537,1.194,2.037,2.037,0,0,0-.024.36,1.069,1.069,0,0,0,.018.24,2.1,2.1,0,0,0,.627,1.233,2.061,2.061,0,0,0,1.4.6h.1a2.1,2.1,0,0,0,1.473-.642,2.15,2.15,0,0,0,.423-.642,2.077,2.077,0,0,0,.15-.585,1.671,1.671,0,0,0,0-.273A2.1,2.1,0,0,0,779.81,364.314Zm-.1,2.16a1.361,1.361,0,0,1-.273.393,1.5,1.5,0,0,1-2.553-.774,1.249,1.249,0,0,1-.027-.237,1.44,1.44,0,0,1,.036-.36,1.5,1.5,0,0,1,1.434-1.17h.069a1.5,1.5,0,0,1,1.461,1.467v.093A1.394,1.394,0,0,1,779.705,366.474Z" transform="translate(-560.61 -266.187)" fill="#d61016"/><circle cx="1.8" cy="1.8" r="1.8" transform="translate(242.794 118.174)" fill="#d61016"/><path d="M540.841,370a1.248,1.248,0,0,0,.027.237c-.2,0-.408,0-.6.015a9.174,9.174,0,0,0-2.766.567c-2.619.987-4.608,3.108-6.42,5.2-2.19,2.523-4.3,5.175-6.273,7.876-.4.546-.792,1.1-1.2,1.65a45.3,45.3,0,0,1-7.2,8.473c-3.837,3.249-8.452,4.65-12.346,3.747-4.662-1.08-8-5.208-10.4-8.683-.3-.447-.618-.9-.924-1.359-2.229-3.3-4.533-6.711-7.93-8.7a13.411,13.411,0,0,0-14.7,1.071,27.106,27.106,0,0,0-4.884,5.8c-.5.714-1.005,1.455-1.53,2.16-2.7,3.627-5.424,5.6-8.359,6.021a16.073,16.073,0,0,1-3.5,0,22.944,22.944,0,0,0-2.361-.093,11.317,11.317,0,0,0-9.838,6.636l-.552-.24a11.941,11.941,0,0,1,10.372-7,22.368,22.368,0,0,1,2.424.1,15.615,15.615,0,0,0,3.369,0c2.769-.4,5.373-2.292,7.963-5.784.519-.7,1.026-1.434,1.518-2.145a27.288,27.288,0,0,1,5.013-5.931,13.834,13.834,0,0,1,15.379-1.119c3.516,2.061,5.859,5.529,8.128,8.887.3.45.6.9.921,1.353,2.325,3.384,5.565,7.4,10.039,8.437,3.708.861,8.128-.492,11.821-3.621a44.6,44.6,0,0,0,7.1-8.365q.59-.828,1.2-1.653c1.983-2.7,4.1-5.376,6.3-7.918,1.863-2.148,3.9-4.329,6.663-5.364a9.825,9.825,0,0,1,2.982-.6c.2,0,.408-.018.6,0A1.445,1.445,0,0,0,540.841,370Z" transform="translate(-324.598 -270.328)" fill="#d61016"/><path d="M813.339,391.484c-3.519,1.314-7.24-.648-9.358-2.73a29.692,29.692,0,0,1-4.425-6.171c-.405-.678-.825-1.383-1.251-2.058a22.3,22.3,0,0,0-7.005-7.482,13.38,13.38,0,0,0-2.979-1.359c-.192-.063-.387-.117-.6-.168a1.4,1.4,0,0,0,.147-.585c.2.051.393.108.6.168a13.9,13.9,0,0,1,3.141,1.434,22.809,22.809,0,0,1,7.2,7.672c.429.684.849,1.389,1.26,2.076a29.1,29.1,0,0,0,4.329,6.045c1.989,1.956,5.472,3.813,8.728,2.6Z" transform="translate(-568.639 -271.228)" fill="#d61016"/><rect width="6.12" height="2.7" rx="0.9" transform="matrix(1, 0.025, -0.025, 1, 101.177, 91.597)" fill="#d61016" opacity="0.5"/><rect width="6.12" height="2.7" rx="0.9" transform="matrix(1, 0.025, -0.025, 1, 100.846, 104.491)" fill="#d61016"/><rect width="6.12" height="2.7" rx="0.9" transform="matrix(1, 0.025, -0.025, 1, 100.517, 117.391)" fill="#d61016" opacity="0.5"/><rect width="6.12" height="2.7" rx="0.9" transform="matrix(1, 0.025, -0.025, 1, 100.189, 130.286)" fill="#d61016" opacity="0.5"/><rect width="6.12" height="2.7" rx="0.9" transform="matrix(1, 0.025, -0.025, 1, 99.86, 143.183)" fill="#d61016" opacity="0.5"/><rect width="6.12" height="2.7" rx="0.9" transform="matrix(1, 0.025, -0.025, 1, 111.211, 148.874)" fill="#d61016" opacity="0.5"/><rect width="6.12" height="2.7" rx="0.9" transform="matrix(1, 0.025, -0.025, 1, 130.256, 149.359)" fill="#d61016" opacity="0.5"/><rect width="6.12" height="2.7" rx="0.9" transform="translate(148.75 150.652) rotate(1.718)" fill="#d61016"/><rect width="6.12" height="2.7" rx="0.9" transform="matrix(1, 0.025, -0.025, 1, 167.899, 150.318)" fill="#d61016" opacity="0.5"/><rect width="6.12" height="2.7" rx="0.9" transform="matrix(1, 0.025, -0.025, 1, 185.952, 150.781)" fill="#d61016" opacity="0.5"/><rect width="6.12" height="2.7" rx="0.9" transform="matrix(1, 0.025, -0.025, 1, 202.875, 151.209)" fill="#d61016"/><rect width="6.12" height="2.7" rx="0.9" transform="matrix(1, 0.025, -0.025, 1, 220.718, 151.663)" fill="#d61016"/><rect width="6.12" height="2.7" rx="1.35" transform="translate(240.04 153.393) rotate(1.718)" fill="#d61016"/><path d="M1030.355,643.032a2.97,2.97,0,1,1-2.1.87,2.97,2.97,0,0,1,2.1-.87m0-.462a3.435,3.435,0,1,0,3.435,3.429A3.435,3.435,0,0,0,1030.355,642.57Z" transform="translate(-736.075 -461.371)" fill="#d61016"/><path d="M1035.3,652.4l.18-.24a.954.954,0,0,0,.657.273c.3,0,.537-.153.537-.4s-.219-.438-.825-.438v-.276c.54,0,.744-.18.744-.414s-.183-.345-.45-.345a.879.879,0,0,0-.567.231l-.192-.231a1.2,1.2,0,0,1,.774-.3c.465,0,.81.225.81.618,0,.276-.2.459-.5.558v.015a.645.645,0,0,1,.576.6c0,.426-.4.684-.882.684A1.161,1.161,0,0,1,1035.3,652.4Z" transform="translate(-741.941 -466.754)" fill="#d61016"/><path d="M1077.645,643.7a2.97,2.97,0,1,1-2.1.87,2.97,2.97,0,0,1,2.1-.87m0-.462a3.432,3.432,0,1,0,2.43,1.005A3.435,3.435,0,0,0,1077.645,643.24Z" transform="translate(-769.177 -461.84)" fill="#5a5773"/><path d="M1082.814,651.509a3.673,3.673,0,0,1,.021-.48h-.021c-.084.129-.18.258-.264.387l-.6.783h1.623v.315h-2.043v-.252l1.218-1.6h.447v2.55h-.372Z" transform="translate(-774.301 -467.034)" fill="#5a5773"/><path d="M1059.341,647.94a.315.315,0,0,1,.441,0l1.548,1.554a.3.3,0,0,1,0,.432l-1.524,1.53a.313.313,0,1,1-.444-.441l1.308-1.32-1.329-1.314a.3.3,0,0,1,0-.444Z" transform="translate(-758.7 -465.067)" fill="#5a5773"/><path d="M1050.77,646.139a3.375,3.375,0,1,0,3.369-3.369A3.375,3.375,0,0,0,1050.77,646.139Zm.519,0a2.859,2.859,0,1,1,.837,2.016A2.827,2.827,0,0,1,1051.289,646.139Z" transform="translate(-752.769 -461.511)" fill="#5a5773"/><rect width="68.177" height="7.155" rx="3.578" transform="translate(49.83 56.721)" fill="#5a5773" opacity="0.2"/><path d="M575.81,437.467c-.5-1.8-.822-3.39-.822-3.39a7.062,7.062,0,0,0-.924-3.435l-.018-.5h0l-.141-3.66a12.457,12.457,0,0,1,.849-1.953c.618-1.176-.2-5.364-.2-5.364s-2.673-5.847-2.223-9.64-5.658-16.546-5.658-16.546a16.354,16.354,0,0,1,.384-3.723,3.044,3.044,0,0,0,.042-.78v-.066c-.177-2.481-2.322-7.065-2.322-7.065l-.078-8.89a26.1,26.1,0,0,0-1.266-12.235c-.807-2.424-1.341-4.368-1.689-5.874-.039-.168-.078-.333-.111-.489,4.2-.807,7.383-1.464,7.383-1.464s-2.835-10.126-4.554-11.851-3.255-7.293-3.255-7.293-1.137-7.185.168-9.349,1.365-5.808,1.365-5.808,3.078-2.424,3.435-3.459a16.973,16.973,0,0,0,.882-4.578c-.045-1.215-.486-2.283-.378-2.928s-1.041-3.03-.558-4.2a3.169,3.169,0,0,0,.168-1.116v-.048a15.586,15.586,0,0,0-.393-2.985,8.48,8.48,0,0,0-3.2-1.557l-.081-.27-.21-.723c-.108-.066-.213-.123-.318-.174l-.018-.261L562,294.76l.405-2.34c.816-4.1-4.617-4.5-4.617-4.5a2.835,2.835,0,0,0-1.587-1.284c-1.1-.342.054,6.108.579,6.5a24.783,24.783,0,0,1,2.265,3.264h0l.1.159a2.83,2.83,0,0,0-.237.27l.261,1.4.039.213a5.917,5.917,0,0,0-.807,1.5,3.157,3.157,0,0,1,.882,2.271,7.054,7.054,0,0,0,.435,2.8c-.06-.066-.786-.792-1.473-.582s-2.61.867-2.61.867-1.443.3-1.3.627-.924,1.764-.924,1.764l-4.044-3.549c-.042-.108-.087-.216-.126-.33a9.091,9.091,0,0,1-.4-1.605,9.189,9.189,0,0,0,1.233-.447,2.7,2.7,0,0,0,1.053-.732,4.224,4.224,0,0,0,.564-1.707,25.267,25.267,0,0,1,1.323-3.282,10.522,10.522,0,0,0,.552-5.805,3.85,3.85,0,0,0-.663-1.674c-.672-.852-1.839-1.164-2.7-1.83s-1.452-1.713-2.451-2.2a4.685,4.685,0,0,0-2.97-.138A15.931,15.931,0,0,0,539.3,286.6a2.838,2.838,0,0,1-1.824.678,2.473,2.473,0,0,1-1.371-.927.075.075,0,0,1,.015-.054l-.045-.051a6.874,6.874,0,0,0-.492,2.943,3.068,3.068,0,0,0,.036.468.593.593,0,0,0,.015.162,1.017,1.017,0,0,1,0,.135h0a.809.809,0,0,1-.021.207,1.517,1.517,0,0,1-.345.543,3.123,3.123,0,0,0-.3.444.511.511,0,0,1,.048-.159,2.3,2.3,0,0,0-.357,1.245,1.221,1.221,0,0,0,.327.867,4.246,4.246,0,0,0,.657.489,7.229,7.229,0,0,0-.066,1.305,7.536,7.536,0,0,0,3.924,6.3l.144.33a9.369,9.369,0,0,1,.873,4.227,1.872,1.872,0,0,1-.036.3c-.048.054-.093.111-.135.168h0s-6.441.3-8.011-1.005-3.7,3.5-3.7,3.5-2.292.537-2.769.108-3.171.057-3.171.057a5.835,5.835,0,0,0-4.083-1.314,11.89,11.89,0,0,0-3.015-1.53h0l-.072-.024h0a3.318,3.318,0,0,0-1.461-.129,29.615,29.615,0,0,1-4.245-3.867c-.978-1.371-5.58-6.414-5.6-6.435l-.021-.255-.078-.756a3.065,3.065,0,0,1-.393.048q-.039-.111-.1-.261a14.445,14.445,0,0,0-1.017-2.1s-.036-.96.234-1.2-.261-3.75-.261-3.75-3.111-6.564-5.478-1.482c0,0-4.71,3.411-.507,7.008,0,0,1.65.72,1.9,1.332.165.4.759,1.5,1.158,2.238l.177.33-.045.039.084.624.033.243c-.747.465-1.248.915-1.11,1.233a7.178,7.178,0,0,1,.528,1.707s5.88,6.813,6.723,9.787c0,0,15.391,8.365,20.365,8.815l-.684,4.5a36.343,36.343,0,0,0-.06,3.648c.1.948-.39,5.325-.39,5.325s-.6,6.423-1.3,7.345-.414,4.749-.414,4.749a32.17,32.17,0,0,1-.78,5.469,13.928,13.928,0,0,0,0,5.436s-2.286,5.847,3.567,1.719c0,0,2.943-.3,6.333-.543v.339c0,.438.018.9.033,1.41.081,3.3.237,7.834.516,11.26.5,6.057,2.808,18,2.808,18l.231,6.033a8.2,8.2,0,0,0-.105,1.731,11.209,11.209,0,0,0,1.857,5.976l.618,4.008a15.134,15.134,0,0,1,1.266,4.2,2.2,2.2,0,0,1-.03.387,2.764,2.764,0,0,0-.03.618,33.933,33.933,0,0,0,1.278,6.159s.237,4.4.9,4.635c.573.2-.657,2.568-1.023,3.252a.642.642,0,0,0-.03-.126l-.075.135a3.1,3.1,0,0,0-.165,1.122,1.605,1.605,0,0,0,.792,1.521c1.284.72,1.983,1.332.927,1.629a11.513,11.513,0,0,0-1.152.3l-.06-.144a.7.7,0,0,0-.381.756,3.245,3.245,0,0,0,.45,1.479,15.908,15.908,0,0,0,1.914,3.189l.5-.078a2.53,2.53,0,0,1-.273.558,2.1,2.1,0,0,1-.72.69,2.3,2.3,0,0,1-.9.345A2.541,2.541,0,0,0,540,437.2a1.946,1.946,0,0,0,.348,3.021l4.782,1.446s8.158.744,7.657-1.062-.822-3.39-.822-3.39a7.238,7.238,0,0,0-.783-3.2,3.653,3.653,0,0,0-.3-.465l.285-.045s.441-4.047,1.2-4.842c.174-.186.21-.321.165-.426.072-.222-.138-.342-.408-.4-.018.054-.036.105-.051.162a3.8,3.8,0,0,0-.771-.054s-.345-2.1.483-2.9a.8.8,0,0,0,.141-.633,3.419,3.419,0,0,0-.12-.855s-.018.033-.03.051a31.241,31.241,0,0,0-2.085-4.881,6.082,6.082,0,0,1,.36-2.7c.5-.786-.468-10.411-.468-10.411a31.588,31.588,0,0,0-.66-6.819,7.7,7.7,0,0,1,.531-4.755.655.655,0,0,0-.021-.138.145.145,0,0,0,.015-.033s-.039-.3-.105-.732v.045c-.18-1.23-.519-3.456-.744-4.482-.321-1.458-.261-8.5-.261-8.5l1.074-3.048,2.31,5.1,2.508,6.813a5.865,5.865,0,0,1,1.251,2.889v.678a4.107,4.107,0,0,0,.78,2.433s.72,3.234,1.674,4.029a3.724,3.724,0,0,1,1.02,2.4,40.8,40.8,0,0,0,1.863,5.493,8.538,8.538,0,0,1,.6,3.2h0v.171s.222,1.683.27,3.105v.468a4.99,4.99,0,0,1-.093,1.155.1.1,0,0,1-.018.066v-.24a12.1,12.1,0,0,0-.225,2.958c.036,1.7.372,3.7,1.446,4.845,1.86,1.977,2.973,1.677,2.973,1.677s-.759,2.589-1.8,3.141a.533.533,0,0,0-.108.075.854.854,0,0,0-.033-.147,1.239,1.239,0,0,0-.273.963,6.835,6.835,0,0,0,1.452,3.738,2.115,2.115,0,0,0,.9.486,1.506,1.506,0,0,1-.162.108,3.185,3.185,0,0,1-.357.186,1.729,1.729,0,0,1-.534.162,2.526,2.526,0,0,0-1.833.981,1.942,1.942,0,0,0,.345,3.018l4.785,1.446S576.311,439.273,575.81,437.467Z" transform="translate(-363.638 -210.308)" fill="url(#b)"/><path d="M648.867,788.622l-4.629-1.44a1.983,1.983,0,0,1-.339-3.021,2.43,2.43,0,0,1,1.773-.981,2.144,2.144,0,0,0,.861-.342,2.052,2.052,0,0,0,.7-.69,3.4,3.4,0,0,0,.453-1.785s4.959-1.662,6.387-.246a3.689,3.689,0,0,1,.642.867,7.442,7.442,0,0,1,.765,3.2s.315,1.584.8,3.39S648.867,788.622,648.867,788.622Z" transform="translate(-467.586 -557.251)" fill="#2d293d"/><path d="M723.133,778.224l-4.632-1.452a1.986,1.986,0,0,1-.339-3.021,2.415,2.415,0,0,1,1.773-.978,1.628,1.628,0,0,0,.516-.162,2.825,2.825,0,0,0,.348-.183,2.889,2.889,0,0,0,1.149-2.475s4.959-1.662,6.39-.246a3.65,3.65,0,0,1,.5.633,7.264,7.264,0,0,1,.9,3.441s.318,1.587.8,3.39S723.133,778.224,723.133,778.224Z" transform="translate(-519.569 -549.964)" fill="#2d293d"/><path d="M663.12,780.075a3.692,3.692,0,0,1,.642.867h0L656.28,782.1a3.4,3.4,0,0,0,.453-1.785S661.692,778.659,663.12,780.075Z" transform="translate(-476.634 -557.222)" opacity="0.1"/><path d="M735.422,770.34l.054,1.407c-1.092,1.971-6.765,1.767-8.446.864a2.829,2.829,0,0,0,.348-.183,2.889,2.889,0,0,0,1.149-2.475s4.959-1.662,6.39-.246A3.653,3.653,0,0,1,735.422,770.34Z" transform="translate(-526.158 -549.964)" opacity="0.1"/><path d="M661.912,579.533a12.537,12.537,0,0,0-.819,1.95l.2,5.046c-1.2,2.157-7.87,1.71-8.809.6s-2.01-4.08-1.008-4.632,1.734-3.135,1.734-3.135-1.077.3-2.88-1.68-1.467-6.534-1.2-7.633a23.426,23.426,0,0,0-.186-4.728s-.033-2.556-.576-3.366a41.671,41.671,0,0,1-1.8-5.5,3.783,3.783,0,0,0-.987-2.4c-.927-.8-1.626-4.032-1.626-4.032a4.2,4.2,0,0,1-.744-2.721,5.585,5.585,0,0,0-1.215-3.282l-2.436-6.813-2.244-5.1-1.035,3.048s-.048,7.039.264,8.5.846,5.343.846,5.343a7.863,7.863,0,0,0-.522,4.752,32.508,32.508,0,0,1,.645,6.822s.948,9.625.465,10.411a6.222,6.222,0,0,0-.342,2.7s2.835,5.52,2.034,6.318-.465,2.9-.465,2.9,1.8-.069,1.05.729-1.155,4.842-1.155,4.842l-7.69,1.2a16.043,16.043,0,0,1-1.857-3.192c-1.113-2.325.111-2.115,1.128-2.4s.345-.9-.9-1.629-.6-2.472-.6-2.472,1.731-3.2,1.083-3.432-.882-4.635-.882-4.635-1.479-5.19-1.2-6.6-1.2-4.752-1.2-4.752l-.6-4.008a11.069,11.069,0,0,1-1.728-7.56l-.24-6.2s-2.25-11.941-2.739-18c-.3-3.882-.471-9.187-.543-12.5-.042-1.86-.057-3.09-.057-3.09l27.488-3.936a22.862,22.862,0,0,0,.657,4.08c.339,1.5.858,3.45,1.644,5.877a26.973,26.973,0,0,1,1.239,12.235l.087,8.89s2.655,5.847,2.223,7.911a17.038,17.038,0,0,0-.357,3.72s5.928,12.76,5.5,16.552,2.16,9.64,2.16,9.64S662.506,578.357,661.912,579.533Z" transform="translate(-451.988 -365.257)" fill="#575988"/><path d="M700.34,640.543,708.7,639.1S704.138,644.14,700.34,640.543Z" transform="translate(-507.475 -458.942)" opacity="0.05"/><path d="M719.887,611.9s.4,2.958-1.377,4.146C718.51,616.046,721.75,615.41,719.887,611.9Z" transform="translate(-520.194 -439.903)" opacity="0.1"/><path d="M697.456,580.45s-6.8,6.051-9.373,5.67S697.456,580.45,697.456,580.45Z" transform="translate(-498.642 -417.888)" opacity="0.1"/><path d="M653.468,654.29s-5.292,1.413-5.37,3.564S653.468,654.29,653.468,654.29Z" transform="translate(-470.906 -469.575)" opacity="0.1"/><path d="M660,742.93s-7.483,1.7-5.307,2.571a36.06,36.06,0,0,0,5.721,1.5S662.846,747.043,660,742.93Z" transform="translate(-475.247 -531.621)" opacity="0.05"/><g transform="translate(169.103 143.739)" opacity="0.05"><path d="M648.487,754.275a1.5,1.5,0,0,1-.729-1.065l-.072.138s-.639,1.752.6,2.472c.144.081.276.162.405.243.219-.051.462-.09.69-.159C650.407,755.61,649.732,755,648.487,754.275Z" transform="translate(-639.606 -682.555)"/><path d="M682.216,750.747c.2-.2.174-.69.024-1.317a3.532,3.532,0,0,0-.357,1.866A1.467,1.467,0,0,1,682.216,750.747Z" transform="translate(-663.657 -679.909)"/><path d="M674.12,648a8.7,8.7,0,0,0-.42,2.367,9.33,9.33,0,0,1,.522-1.638S674.183,648.456,674.12,648Z" transform="translate(-657.931 -608.91)"/><path d="M731.924,633a3,3,0,0,0,.045-.7c-.078.483-.126.927-.159,1.317C731.843,633.41,731.882,633.212,731.924,633Z" transform="translate(-698.607 -597.921)"/><path d="M677.022,720.425a4.192,4.192,0,0,0,.135-1.425,4.839,4.839,0,0,0-.3,1.8A1.717,1.717,0,0,1,677.022,720.425Z" transform="translate(-660.14 -658.609)"/><path d="M658.783,763.7a24.986,24.986,0,0,0-.729,3.957l-7.689,1.2a15.864,15.864,0,0,1-1.851-3.2c-.1-.2-.177-.387-.24-.555-.453.231-.618.717.045,2.1a16.16,16.16,0,0,0,1.854,3.192l7.69-1.2s.42-4.047,1.158-4.845C659.377,763.967,659.128,763.79,658.783,763.7Z" transform="translate(-639.855 -689.898)"/><path d="M629.421,580.432s.234,4.407.882,4.638h0c.3-.744.483-1.443.192-1.545-.648-.231-.882-4.638-.882-4.638s-1.479-5.187-1.2-6.6-1.2-4.752-1.2-4.752l-.6-4.005a11.088,11.088,0,0,1-1.7-7.549l-.24-6.2s-2.25-11.941-2.739-18c-.3-3.879-.471-9.187-.543-12.5,0-.6-.024-1.128-.033-1.575l-.219.03s0,1.23.054,3.09c.075,3.3.231,8.617.546,12.5.489,6.06,2.739,18,2.739,18l.219,6.192a11.087,11.087,0,0,0,1.7,7.548l.6,4.008s1.473,3.333,1.2,4.749S629.421,580.432,629.421,580.432Z" transform="translate(-621.14 -517.71)"/><path d="M722.655,765.435a7.4,7.4,0,0,1-1.341-2.985c-.762.741.252,3.468,1.143,4.53.939,1.116,7.608,1.563,8.806-.6l-.048-1.218C729.556,766.947,723.54,766.491,722.655,765.435Z" transform="translate(-691.072 -689.023)"/><path d="M755.929,746.988a12.538,12.538,0,0,0-.819,1.95l.033.9a13.74,13.74,0,0,1,.6-1.305,3.9,3.9,0,0,0,.219-1.593A.2.2,0,0,0,755.929,746.988Z" transform="translate(-714.916 -678.166)"/><path d="M717.786,729.93a12.607,12.607,0,0,0,.57-1.542s-1.077.3-2.88-1.68c-1.311-1.44-1.5-4.245-1.383-6.087-.279,1.1-.615,5.652,1.2,7.63A4.5,4.5,0,0,0,717.786,729.93Z" transform="translate(-686.05 -659.743)"/><path d="M684.881,623.76a34.909,34.909,0,0,1,.273,3.78,4.914,4.914,0,0,1,.108-.6,22.533,22.533,0,0,0-.186-4.725s-.033-2.559-.576-3.369a41.668,41.668,0,0,1-1.8-5.5,3.787,3.787,0,0,0-.987-2.4c-.927-.8-1.632-4.023-1.632-4.023a4.179,4.179,0,0,1-.744-2.721,5.6,5.6,0,0,0-1.2-3.279l-2.457-6.825-2.244-5.1-1.035,3.06v.972l.84-2.475,2.244,5.1,2.439,6.816a5.5,5.5,0,0,1,1.2,3.279,4.2,4.2,0,0,0,.744,2.724s.7,3.234,1.626,4.032a3.806,3.806,0,0,1,.99,2.4,43.072,43.072,0,0,0,1.8,5.5A9.77,9.77,0,0,1,684.881,623.76Z" transform="translate(-657.021 -567.612)"/></g><path d="M701.738,298.918l-.39,2.352.069,1.035.048.765-2.652.378-.321-.54h0a25.88,25.88,0,0,0-2.2-3.267c-.51-.393-1.638-6.843-.567-6.5a2.8,2.8,0,0,1,1.536,1.287S702.524,294.825,701.738,298.918Z" transform="translate(-503.935 -216.767)" fill="#ffcdd3"/><path d="M708.953,323.86l-2.652.378-.321-.54h0a2.355,2.355,0,0,1,2.925-.6Z" transform="translate(-511.423 -237.557)" opacity="0.1"/><path d="M709.361,325.663l-3.483.948-.1-.519-.252-1.4a2.424,2.424,0,0,1,3.384-.6l.2.711Z" transform="translate(-511.108 -238.121)" fill="#dce6f2"/><path d="M507.567,294.787l-3.672,2.16s-.156-.3-.369-.7c-.384-.735-.96-1.842-1.122-2.238-.246-.6-1.842-1.338-1.842-1.338-4.071-3.6.483-7.005.483-7.005,2.283-5.079,5.3,1.5,5.3,1.5s.516,3.5.255,3.75-.225,1.2-.225,1.2a14.055,14.055,0,0,1,.987,2.1C507.5,294.571,507.567,294.787,507.567,294.787Z" transform="translate(-366.45 -210.2)" fill="#ffcdd3"/><path d="M518.431,319.267l-3.672,2.16s-.156-.3-.369-.7c.513-.462,2.331-2.058,2.952-2.013a4.768,4.768,0,0,0,.9,0C518.362,319.051,518.431,319.267,518.431,319.267Z" transform="translate(-377.314 -234.68)" opacity="0.1"/><path d="M519.158,320.867l-4.134,2.238-.12-.9-.084-.624s2.364-2.187,3.087-2.136a3.861,3.861,0,0,0,1.1-.045l.078.759Z" transform="translate(-377.615 -235.158)" fill="#dce6f2"/><path d="M648.954,332.452s-18.3,2.781-14.911,1.533a4.6,4.6,0,0,0,3.387-4.122,9.426,9.426,0,0,0-.846-4.227,18.3,18.3,0,0,0-1.773-3.258s13.756-8.272,11.227-1.14a11.2,11.2,0,0,0-.669,3.36,9.341,9.341,0,0,0,.489,3.357A10.042,10.042,0,0,0,648.954,332.452Z" transform="translate(-460.775 -234.415)" fill="#ffcdd3"/><path d="M648.828,321.235a11.2,11.2,0,0,0-.669,3.36c-1.281,1.164-2.736,1.146-4.6,1.218-1.434.054-3,.462-4.176-.183a18.3,18.3,0,0,0-1.773-3.258S651.357,314.1,648.828,321.235Z" transform="translate(-463.565 -234.414)" opacity="0.1"/><circle cx="7.609" cy="7.609" r="7.609" transform="translate(171.851 76.687)" fill="#ffcdd3"/><path d="M648.954,353.284s-18.3,2.781-14.911,1.533a4.6,4.6,0,0,0,3.387-4.122,10.357,10.357,0,0,1,3.855-2.238,5.521,5.521,0,0,1,3.33-.183,4.591,4.591,0,0,1,1.233.516A10.041,10.041,0,0,0,648.954,353.284Z" transform="translate(-460.775 -255.247)" opacity="0.1"/><path d="M709.949,328.183l-3.483.948-.1-.519a3.111,3.111,0,0,1,3.336-1.287Z" transform="translate(-511.696 -240.641)" opacity="0.1"/><path d="M519.354,322.638l-4.134,2.238-.12-.9a30.814,30.814,0,0,1,4.182-2.046Z" transform="translate(-377.811 -236.929)" opacity="0.1"/><path d="M649.256,509.33c-7.074,1.4-17.152,3.252-18.778,2.823-1.35-.354-5.607-.147-9.3.123-.042-1.86-.057-3.09-.057-3.09l27.488-3.936A22.084,22.084,0,0,0,649.256,509.33Z" transform="translate(-452.023 -365.25)" opacity="0.1"/><path d="M579.6,379.647s-23.291,4.926-25.838,4.257-15.43.657-15.43.657c-5.664,4.119-3.456-1.722-3.456-1.722a14.282,14.282,0,0,1-.018-5.436,33.3,33.3,0,0,0,.75-5.466s-.276-3.828.393-4.749,1.251-7.341,1.251-7.341.471-4.371.372-5.325.051-3.648.051-3.648l.657-4.5c-4.8-.456-19.723-8.839-19.723-8.839-.819-2.976-6.519-9.793-6.519-9.793a7.27,7.27,0,0,0-.513-1.707c-.423-1.008,5.247-3.273,5.247-3.273s4.482,5.073,5.43,6.444a29.1,29.1,0,0,0,4.116,3.87,3.159,3.159,0,0,1,1.413.132.41.41,0,0,1,.075.021h0a11.508,11.508,0,0,1,2.925,1.533,5.551,5.551,0,0,1,3.951,1.32s2.6-.483,3.069-.054,2.682-.1,2.682-.1,2.055-4.815,3.576-3.5,7.756,1.014,7.756,1.014c.789-1.137,2.778-2.007,4.026-2.463a5.521,5.521,0,0,1,3.33-.183,4.31,4.31,0,0,1,1.341.6l3.924,3.558s1.032-1.446.9-1.761,1.257-.624,1.257-.624,1.83-.648,2.526-.864,1.368.516,1.425.582a7.528,7.528,0,0,1-.423-2.8,3.309,3.309,0,0,0-.855-2.271c2.025-5.58,7.248-1.173,7.248-1.173s.69,2.979.222,4.149.648,3.558.546,4.2.321,1.716.369,2.928a16.922,16.922,0,0,1-.864,4.557c-.354,1.047-3.3,3.453-3.3,3.453s-.051,3.648-1.311,5.805-.153,9.349-.153,9.349,1.5,5.571,3.159,7.3S579.6,379.647,579.6,379.647Z" transform="translate(-375.329 -237.51)" fill="#656691"/><path d="M611.315,367.76s-.783-2.082-1.431-2.247a15.208,15.208,0,0,1-1.884-.759l.381-.8s2.427.567,2.835,1.254A5.557,5.557,0,0,1,611.315,367.76Z" transform="translate(-442.839 -266.342)" opacity="0.1"/><path d="M562.206,359.1c-.1.645-5.766,1.437-5.766,1.437l2.763-3h0l.072.024h0a11.508,11.508,0,0,1,2.931,1.539Z" transform="translate(-406.748 -261.856)" opacity="0.1"/><circle cx="0.51" cy="0.51" r="0.51" transform="translate(138.159 88.604)" fill="#575988"/><circle cx="0.51" cy="0.51" r="0.51" transform="translate(138.852 89.6)" fill="#575988"/><circle cx="0.51" cy="0.51" r="0.51" transform="translate(139.527 90.518)" fill="#575988"/><circle cx="0.51" cy="0.51" r="0.51" transform="translate(140.238 91.514)" fill="#575988"/><circle cx="0.417" cy="0.417" r="0.417" transform="translate(200.545 89.234)" fill="#575988"/><circle cx="0.417" cy="0.417" r="0.417" transform="translate(200.644 90.173)" fill="#575988"/><circle cx="0.417" cy="0.417" r="0.417" transform="translate(200.737 91.112)" fill="#575988"/><path d="M621.38,434.349c-.063-.075,15.037,17.557,25.8,6.618C647.193,440.968,629.621,444.043,621.38,434.349Z" transform="translate(-452.204 -315.621)" opacity="0.1"/><path d="M595,466.919s8.626-.1,9.622,2.346l.1,2.58a1.644,1.644,0,0,1-1.6.063c-.9-.438-6.2-2.883-7.986-1.539Z" transform="translate(-433.739 -338.418)" opacity="0.1"/><path d="M595.55,466.9s8.25-.093,9.2,2.238l.1,2.457a1.581,1.581,0,0,1-1.533.06c-.849-.414-5.928-2.748-7.638-1.464Z" transform="translate(-434.124 -338.404)" fill="#656691"/><path d="M608.29,404a27.792,27.792,0,0,0,3.564,5.6,22.448,22.448,0,0,0,5.427,4.854S608.482,405.164,608.29,404Z" transform="translate(-443.042 -294.377)" opacity="0.1"/><path d="M597.61,370.94s1.677,6.15,5.463,8.116Z" transform="translate(-435.566 -271.235)" opacity="0.1"/><path d="M590.135,373.306c-.042-.114-1.089,4.956,5.07,7.5C595.2,380.809,592.6,380.035,590.135,373.306Z" transform="translate(-430.269 -272.89)" opacity="0.1"/><path d="M715.225,354.591a42.625,42.625,0,0,1,3.933,2.727S717.04,354.408,715.225,354.591Z" transform="translate(-517.893 -259.785)" opacity="0.1"/><path d="M634.057,302.366a1.594,1.594,0,0,0,.633,1,1.548,1.548,0,0,0,.723.132,15.447,15.447,0,0,0,6.846-.9,2.586,2.586,0,0,0,1.02-.735,4.263,4.263,0,0,0,.543-1.7,24.178,24.178,0,0,1,1.278-3.282,10.837,10.837,0,0,0,.528-5.826,3.9,3.9,0,0,0-.645-1.674c-.648-.855-1.782-1.167-2.622-1.833s-1.4-1.716-2.373-2.205a4.4,4.4,0,0,0-2.874-.144,15.066,15.066,0,0,0-5.277,2.223,2.672,2.672,0,0,1-1.764.675,2.446,2.446,0,0,1-1.356-.957,7.1,7.1,0,0,0-.441,3.333,1.479,1.479,0,0,1,0,.5,1.52,1.52,0,0,1-.333.54,1.935,1.935,0,0,0-.273,2.4c.258.282.642.426.9.714.45.519.336,1.293.351,1.977a1.011,1.011,0,0,0,.2.666.984.984,0,0,0,.945.189,2.54,2.54,0,0,1,1-.135,1.647,1.647,0,0,1,.9.636A11.792,11.792,0,0,1,634.057,302.366Z" transform="translate(-456.385 -211.098)" fill="#2d293d"/><g transform="translate(170.965 75.949)" opacity="0.1"><path d="M643.505,316.993a2.569,2.569,0,0,1-1.017.732,15.185,15.185,0,0,1-6.849.9,1.2,1.2,0,0,1-1.356-1.137,11.988,11.988,0,0,0-2.1-4.422,1.662,1.662,0,0,0-.9-.633,2.589,2.589,0,0,0-1,.132.99.99,0,0,1-.948-.186,1.039,1.039,0,0,1-.195-.669c-.015-.684.1-1.458-.348-1.974-.252-.3-.636-.432-.9-.717a1.5,1.5,0,0,1-.2-1.518,1.748,1.748,0,0,0-.03,2.04c.255.282.642.426.9.717.45.516.336,1.29.351,1.974a1.011,1.011,0,0,0,.2.666.984.984,0,0,0,.945.189,2.6,2.6,0,0,1,1-.135,1.647,1.647,0,0,1,.9.636,11.645,11.645,0,0,1,2.1,4.422,1.609,1.609,0,0,0,.633,1.005,1.584,1.584,0,0,0,.723.132,15.533,15.533,0,0,0,6.846-.9,2.611,2.611,0,0,0,1.02-.732,2.115,2.115,0,0,0,.3-.63A1.162,1.162,0,0,1,643.505,316.993Z" transform="translate(-627.344 -302.778)"/><path d="M630.345,295.465a1.075,1.075,0,0,0,.216-.393,1.387,1.387,0,0,0,0-.5,7.046,7.046,0,0,1,.249-2.763l-.045-.051a7.1,7.1,0,0,0-.441,3.333A1.94,1.94,0,0,1,630.345,295.465Z" transform="translate(-629.401 -291.76)"/></g><path d="M645.77,357.027s9.544.9,10.345-.567" transform="translate(-469.277 -261.1)" opacity="0.1"/><path d="M706.8,342.867s5.277-.195,6.513,1.737" transform="translate(-511.997 -251.581)" opacity="0.1"/><path d="M1079.992,677s1.779,2.325-.822,5.838-4.743,6.477-3.876,8.668c0,0,3.924-6.522,7.116-6.615S1083.5,680.918,1079.992,677Z" transform="translate(-769.798 -485.471)" fill="#d61016"/><path d="M1080.224,677a2.764,2.764,0,0,1,.363.729c3.117,3.66,4.776,7.078,1.782,7.161-2.79.081-6.138,5.07-6.939,6.327a2.957,2.957,0,0,0,.1.3s3.924-6.522,7.116-6.615S1083.737,680.918,1080.224,677Z" transform="translate(-770.031 -485.471)" opacity="0.1"/><path d="M1101.481,685.649c0,.819-.093,1.482-.207,1.482s-.2-.663-.2-1.482.114-.432.228-.432S1101.481,684.83,1101.481,685.649Z" transform="translate(-787.978 -491.159)" fill="#ffd037"/><path d="M1102.942,688.783c-.72.39-1.347.627-1.4.528s.486-.5,1.2-.9.435-.108.492,0S1103.659,688.39,1102.942,688.783Z" transform="translate(-788.305 -493.315)" fill="#ffd037"/><path d="M1050.775,677s-1.779,2.325.819,5.838,4.746,6.477,3.879,8.668c0,0-3.924-6.522-7.116-6.615S1047.262,680.918,1050.775,677Z" transform="translate(-749.978 -485.471)" fill="#d61016"/><path d="M1050.775,677a2.764,2.764,0,0,0-.363.729c-3.117,3.66-4.776,7.078-1.782,7.161,2.79.081,6.135,5.07,6.939,6.327a2.928,2.928,0,0,1-.1.3s-3.924-6.522-7.116-6.615S1047.262,680.918,1050.775,677Z" transform="translate(-749.978 -485.471)" opacity="0.1"/><path d="M1049.06,685.649c0,.819.093,1.482.207,1.482s.2-.663.2-1.482-.114-.432-.228-.432S1049.06,684.83,1049.06,685.649Z" transform="translate(-751.572 -491.159)" fill="#ffd037"/><path d="M1044.261,688.783c.72.39,1.347.627,1.4.528s-.486-.5-1.2-.9-.438-.108-.492,0S1043.541,688.39,1044.261,688.783Z" transform="translate(-747.908 -493.315)" fill="#ffd037"/><ellipse cx="18.601" cy="2.853" rx="18.601" ry="2.853" transform="translate(286.891 218.123)" fill="#d61016" opacity="0.1"/><path d="M1062.978,712.356l-.09.726-.123,1.026-.051.429-.126,1.026-.054.429-.126,1.023-1.422,11.671c-.129,1.041-1.83,1.854-3.882,1.854h-7.4c-2.055,0-3.753-.813-3.879-1.854l-1.428-11.671-.123-1.023-.051-.429-.129-1.026-.051-.429-.126-1.026-.087-.726c-.072-.6.849-1.086,2.01-1.086h15.139C1062.129,711.27,1063.053,711.765,1062.978,712.356Z" transform="translate(-747.909 -509.46)" fill="#65617d"/><path d="M1005.6,678.69l-.126,1.026H986.753l-.123-1.026Z" transform="translate(-690.621 -475.067)" fill="#9d9cb5"/><path d="M1005.836,683.53l-.123,1.029H987.346l-.126-1.029Z" transform="translate(-691.034 -478.455)" fill="#9d9cb5"/><path d="M1006.069,688.38l-.123,1.026h-18.01l-.126-1.026Z" transform="translate(-691.447 -481.85)" fill="#9d9cb5"/></g></g></svg>