<svg xmlns="http://www.w3.org/2000/svg" width="394.194" height="227.676" viewBox="0 0 394.194 227.676"><g transform="translate(-168.327 -857.437)"><path d="M7.7,20.456C34.347,10.428,111.665-.787,198.524.043S326.2,5.388,343.307,15.12,386.8,43.933,321,48.028s-164.26-3.243-229.075-7.871S-18.953,30.484,7.7,20.456Z" transform="translate(174.512 1035.887)" fill="#e8e8e8" opacity="0.57"/><g transform="translate(168.327 857.437)"><rect width="131.803" height="89.795" transform="translate(117.336 113.269)" fill="#d61016"/><path d="M543.814,453.218h-129.7a1.578,1.578,0,0,0-1.576,1.576v87.694a1.576,1.576,0,0,0,1.576,1.576h129.7a1.576,1.576,0,0,0,1.576-1.576V454.794A1.578,1.578,0,0,0,543.814,453.218Zm.525,89.27a.524.524,0,0,1-.525.525h-129.7a.524.524,0,0,1-.525-.525V454.794a.526.526,0,0,1,.525-.525h129.7a.526.526,0,0,1,.525.525Z" transform="translate(-287.324 -350.452)" fill="#3f3d56"/><rect width="59.338" height="6.826" rx="2" transform="translate(132.039 164.73)" fill="#3f3d56"/><path d="M693.2,599.748H674.3a1.576,1.576,0,0,0-1.576,1.576v14.7A1.576,1.576,0,0,0,674.3,617.6h18.9a1.576,1.576,0,0,0,1.576-1.576v-14.7a1.576,1.576,0,0,0-1.576-1.576Zm.525,16.278a.526.526,0,0,1-.525.525H674.3a.526.526,0,0,1-.525-.525v-14.7a.524.524,0,0,1,.525-.525h18.9a.523.523,0,0,1,.525.525Z" transform="translate(-447.741 -440.794)" fill="#3f3d56"/><rect width="12.885" height="2.666" rx="1.333" transform="translate(229.569 162.346)" fill="#3f3d56"/><rect width="12.885" height="2.666" rx="1.333" transform="translate(229.569 166.548)" fill="#3f3d56"/><rect width="12.885" height="2.666" rx="1.333" transform="translate(229.569 170.748)" fill="#3f3d56"/><rect width="27.306" height="11.552" rx="2" transform="translate(133.614 109.068)" fill="#3f3d56"/><path d="M468.776,478.806c0,2.03-.94,3.676-2.1,3.676s-2.1-1.646-2.1-3.676,2.1-3.676,2.1-3.676S468.776,476.776,468.776,478.806Z" transform="translate(-319.408 -363.962)" fill="#d61016"/><path d="M760.8,161.837h-.767v85.747H672.992v.767H760.8Z" transform="translate(-414.926 -99.779)" fill="#3f3d56"/><path d="M164.8,248.351H76.992V161.837h.767v85.747H164.8Z" transform="translate(-47.469 -99.779)" fill="#3f3d56"/><path d="M958.081,199.721h-.491v-.86h.369a.246.246,0,0,0,.246-.246v-4.423a.246.246,0,0,0-.246-.246h-.369v-2.512a5.352,5.352,0,0,0-5.352-5.352h-.546v-.614a.246.246,0,0,0-.246-.246h-4.423a.246.246,0,0,0-.246.246v.614H866.857a5.352,5.352,0,0,0-5.352,5.352V305.319a5.352,5.352,0,0,0,5.352,5.352h85.38a5.352,5.352,0,0,0,5.352-5.352V204.636h.492a.246.246,0,0,0,.246-.246v-4.423a.246.246,0,0,0-.244-.246Z" transform="translate(-564.131 -185.222)" fill="#3f3d56"/><rect width="87.975" height="116.728" rx="1.905" transform="translate(301.797 4.361)" fill="#ecd4d5"/><rect width="15.092" height="4.472" rx="2" transform="translate(335.682 61.568)" fill="#3f3d56"/><rect width="51.582" height="1.917" rx="0.958" transform="translate(317.437 26.748)" fill="#3f3d56"/><rect width="51.582" height="1.917" rx="0.958" transform="translate(317.437 32.817)" fill="#3f3d56"/><rect width="51.582" height="1.917" rx="0.958" transform="translate(317.437 38.887)" fill="#3f3d56"/><rect width="51.582" height="1.917" rx="0.958" transform="translate(317.437 44.956)" fill="#3f3d56"/><rect width="51.582" height="1.917" rx="0.958" transform="translate(317.437 51.026)" fill="#3f3d56"/><ellipse cx="16.021" cy="16.021" rx="16.021" ry="16.021" transform="translate(325.38 84.437)" fill="#d61016"/><path d="M956.341,414.835a20.086,20.086,0,1,1,20.086-20.086,20.086,20.086,0,0,1-20.086,20.086Zm0-39.442A19.356,19.356,0,1,0,975.7,394.749,19.356,19.356,0,0,0,956.341,375.393Z" transform="translate(-610.217 -302.02)" fill="#3f3d56"/><path d="M145.629,227.445h-.657v-18a10.417,10.417,0,0,0-10.417-10.417H96.421A10.417,10.417,0,0,0,86,209.447V308.19a10.417,10.417,0,0,0,10.417,10.417h38.133a10.417,10.417,0,0,0,10.417-10.418V240.257h.657Z" transform="translate(-86.004 -193.735)" fill="#3f3d56"/><path d="M147.376,215.286v98.6a7.78,7.78,0,0,1-7.78,7.781H101.281a7.779,7.779,0,0,1-7.778-7.78v-98.6a7.779,7.779,0,0,1,7.778-7.778h4.65a3.7,3.7,0,0,0,3.422,5.091H131.2a3.7,3.7,0,0,0,3.422-5.091H139.6a7.779,7.779,0,0,1,7.778,7.777Z" transform="translate(-90.627 -198.962)" fill="#ecd4d5"/><rect width="10.265" height="3.042" rx="1.521" transform="translate(24.68 66.635)" fill="#3f3d56"/><rect width="35.084" height="1.304" rx="0.652" transform="translate(12.271 42.952)" fill="#3f3d56"/><rect width="35.084" height="1.304" rx="0.652" transform="translate(12.271 47.08)" fill="#3f3d56"/><rect width="35.084" height="1.304" rx="0.652" transform="translate(12.271 51.209)" fill="#3f3d56"/><rect width="35.084" height="1.304" rx="0.652" transform="translate(12.271 55.337)" fill="#3f3d56"/><rect width="35.084" height="1.304" rx="0.652" transform="translate(12.271 59.465)" fill="#3f3d56"/><ellipse cx="11.049" cy="11.049" rx="11.049" ry="11.049" transform="translate(15.746 87.253)" fill="#d61016"/><path d="M142.1,419.256A13.852,13.852,0,1,1,155.952,405.4,13.852,13.852,0,0,1,142.1,419.256Zm0-27.2A13.349,13.349,0,1,0,155.448,405.4,13.349,13.349,0,0,0,142.1,392.056Z" transform="translate(-112.048 -312.433)" fill="#3f3d56"/><rect width="10.737" height="10.737" transform="translate(56.562 143.87)" fill="#d0cde1"/><path d="M257.547,551.45H244.509V538.412h13.038Zm-12.471-.567h11.9v-11.9h-11.9Z" transform="translate(-183.729 -402.978)" fill="#3f3d56"/><rect width="10.737" height="10.737" transform="translate(296.992 143.87)" fill="#d0cde1"/><path d="M884.547,551.45H871.509V538.412h13.038Zm-12.471-.567h11.9v-11.9h-11.9Z" transform="translate(-570.299 -402.978)" fill="#3f3d56"/></g></g></svg>