<svg xmlns="http://www.w3.org/2000/svg" xmlns:xlink="http://www.w3.org/1999/xlink" width="355.368" height="283.09" viewBox="0 0 355.368 283.09"><defs><linearGradient id="a" x1="0.5" y1="1" x2="0.5" gradientUnits="objectBoundingBox"><stop offset="0" stop-color="gray" stop-opacity="0.251"/><stop offset="0.54" stop-color="gray" stop-opacity="0.122"/><stop offset="1" stop-color="gray" stop-opacity="0.102"/></linearGradient><linearGradient id="c" xlink:href="#a"/><linearGradient id="g" xlink:href="#a"/></defs><g transform="translate(-811.816 -2752.491)"><path d="M347.838,20.456C321.768,10.428,246.13-.787,161.159.043S36.259,5.388,19.523,15.12-23.026,43.933,41.346,48.028s160.69-3.243,224.1-7.871S373.909,30.484,347.838,20.456Z" transform="translate(811.816 2942.397)" fill="#e8e8e8" opacity="0.57"/><g transform="translate(823.935 2752.491)"><g transform="translate(87.064 19.585)" opacity="0.5"><rect width="139.943" height="193.356" fill="url(#a)"/></g><rect width="136.382" height="189.083" transform="translate(88.844 21.009)" fill="#fff"/><rect width="67.657" height="16.387" transform="translate(123.385 16.017)" fill="url(#a)"/><path d="M587.618,52.5a9.688,9.688,0,1,0,9.458,9.686A9.574,9.574,0,0,0,587.618,52.5Zm0,15.273a5.587,5.587,0,1,1,5.441-5.587,5.523,5.523,0,0,1-5.441,5.587Z" transform="translate(-430.405 -52.5)" fill="url(#c)"/><rect width="66.232" height="15.668" transform="translate(124.097 16.024)" fill="#d61016"/><path d="M587.978,54.5a9.258,9.258,0,1,0,9.258,9.258A9.258,9.258,0,0,0,587.978,54.5Zm0,14.6a5.341,5.341,0,1,1,5.341-5.341A5.341,5.341,0,0,1,587.978,69.1Z" transform="translate(-430.765 -53.788)" fill="#d61016"/><rect width="29.199" height="29.199" transform="translate(95.254 51.633)" fill="url(#a)"/><rect width="29.199" height="29.199" transform="translate(95.353 109.497)" fill="url(#a)"/><rect width="29.199" height="29.199" transform="translate(95.453 166.649)" fill="url(#a)"/><rect width="27.063" height="27.063" transform="translate(96.322 52.701)" fill="#69f0ae"/><rect width="27.063" height="27.063" transform="translate(96.322 110.031)" fill="#d61016"/><rect width="27.063" height="27.063" transform="translate(96.322 167.362)" fill="#d61016"/><rect width="37.094" height="2.589" transform="translate(141.189 61.055)" fill="#e0e0e0"/><rect width="61.247" height="2.589" transform="translate(141.189 64.94)" fill="#e0e0e0"/><rect width="56.935" height="2.589" transform="translate(141.189 68.821)" fill="#e0e0e0"/><rect width="37.094" height="2.589" transform="translate(141.189 118.385)" fill="#e0e0e0"/><rect width="61.247" height="2.589" transform="translate(141.189 122.27)" fill="#e0e0e0"/><rect width="56.935" height="2.589" transform="translate(141.189 126.151)" fill="#e0e0e0"/><rect width="37.094" height="2.589" transform="translate(141.189 175.715)" fill="#e0e0e0"/><rect width="61.247" height="2.589" transform="translate(141.189 179.6)" fill="#e0e0e0"/><rect width="56.935" height="2.589" transform="translate(141.189 183.482)" fill="#e0e0e0"/><path d="M287.548,171.109l4.914,4.508,6.962-10.238,2.457,2.048-9.419,12.285-6.962-7.781Z" transform="translate(-183.837 -106.49)" fill="url(#g)"/><path d="M290.28,172.985l4.273,3.917,6.054-8.9,2.136,1.78-8.19,10.683L288.5,173.7Z" transform="translate(-185.768 -108.177)" fill="#fff"/><path d="M290.28,334.985l4.273,3.917,6.054-8.9,2.136,1.78-8.19,10.683L288.5,335.7Z" transform="translate(-185.768 -212.491)" fill="#fff"/><path d="M290.28,496.985l4.273,3.917,6.054-8.9,2.136,1.78-8.19,10.683L288.5,497.7Z" transform="translate(-185.768 -316.804)" fill="#fff"/><g transform="translate(231.814 75.847)" opacity="0.5"><line x2="2.137" transform="translate(0 49.14)" fill="none" stroke="#69f0ae" stroke-miterlimit="10" stroke-width="5"/><line x2="47.249" transform="translate(6.246 49.14)" fill="none" stroke="#69f0ae" stroke-miterlimit="10" stroke-width="5" stroke-dasharray="11.54 11.54"/><path d="M807,347.137h2.137V345" transform="translate(-751.45 -297.996)" fill="none" stroke="#69f0ae" stroke-miterlimit="10" stroke-width="5"/><line y1="38.75" transform="translate(57.686 4.177)" fill="none" stroke="#69f0ae" stroke-miterlimit="10" stroke-width="5" stroke-dasharray="11.45 11.45"/><line y1="2.137" transform="translate(57.686)" fill="none" stroke="#69f0ae" stroke-miterlimit="10" stroke-width="5"/></g><path d="M145.216,182.5H97.5v44.867" transform="translate(-62.781 -117.514)" fill="none" stroke="#69f0ae" stroke-miterlimit="10" stroke-width="5" stroke-dasharray="12" opacity="0.5"/><path d="M308.5,611.5v25.638h71.218" transform="translate(-198.647 -393.752)" fill="none" stroke="#69f0ae" stroke-miterlimit="10" stroke-width="5" stroke-dasharray="12" opacity="0.5"/><g transform="translate(256.184 14.956)" opacity="0.5"><path d="M774.32,65.178,746.88,42,719.867,65.128l-.242-.135v.185h-.185l.185.1V95.769h54.51l-.331-.185h.516Z" transform="translate(-719.44 -42)" fill="url(#a)"/></g><path d="M775.845,96.455H723.5v-29.2L749.495,45l26.351,22.256Z" transform="translate(-465.87 -28.976)" fill="#fff"/><path d="M722.5,107.5l25.995,14.6,26.351-14.6" transform="translate(-465.226 -69.22)" fill="#e0e0e0"/><g transform="translate(267.779 24.57)" opacity="0.5"><path d="M768.031,96.942,752,107.1V69h31.692V88.378Z" transform="translate(-752 -69)" fill="url(#a)"/></g><path d="M769.312,98.419,754,108.389V71h30.268V90.015Z" transform="translate(-485.509 -45.718)" fill="#fafafa"/><path d="M723,136.2h52.345L723,107Z" transform="translate(-465.548 -68.899)" opacity="0.05"/><path d="M723,137.2h52.345L723,108Z" transform="translate(-465.548 -69.542)" fill="#f5f5f5"/><rect width="22.077" height="1.424" transform="translate(272.408 30.98)" fill="#fff"/><rect width="22.077" height="1.424" transform="translate(272.408 33.828)" fill="#fff"/><rect width="22.077" height="1.424" transform="translate(272.408 36.677)" fill="#d61016"/><rect width="22.077" height="1.424" transform="translate(272.408 39.526)" fill="#fff"/><rect width="22.077" height="1.424" transform="translate(272.408 42.375)" fill="#d61016"/><path d="M810.835,123.712V123l-15.575,8.657.424.235Z" transform="translate(-512.077 -79.201)" opacity="0.05"/><g transform="translate(192.651 220.775)" opacity="0.5"><rect width="61.942" height="62.315" fill="url(#a)"/></g><rect width="59.111" height="59.467" transform="translate(194.068 222.199)" fill="#f5f5f5"/><rect width="51.989" height="45.579" transform="translate(197.985 223.98)" fill="#fff"/><path d="M771.209,753.69c-14.368,0-25.994-3.664-25.994-8.19-14.368,0-25.995,3.187-25.995,7.122v17.092h51.989Z" transform="translate(-521.235 -498.731)" fill="#e0e0e0"/><circle cx="5.341" cy="5.341" r="5.341" transform="translate(236.087 228.609)" fill="#d61016"/><g transform="translate(0 113.859)" opacity="0.5"><rect width="72.642" height="51.455" fill="url(#a)"/></g><rect width="68.369" height="48.428" transform="translate(2.137 115.373)" fill="#fff"/><path d="M245.345,410.84a13.284,13.284,0,0,0-1.709.114l1.709,13.061-13.143-.876c-.018.288-.032.58-.032.876a13.175,13.175,0,1,0,13.175-13.175Z" transform="translate(-207.618 -283.239)" fill="#e0e0e0"/><path d="M235.694,404.16a13.175,13.175,0,0,0-11.434,12.185l13.143.876Z" transform="translate(-202.524 -278.938)" fill="#d61016"/></g></g></svg>